G75*
G70*
%OFA0B0*%
%FSLAX24Y24*%
%IPPOS*%
%LPD*%
%AMOC8*
5,1,8,0,0,1.08239X$1,22.5*
%
%ADD10C,0.0690*%
%ADD11C,0.0300*%
%ADD12C,0.0100*%
%ADD13C,0.0079*%
D10*
X006524Y002033D03*
X007524Y002033D03*
X008524Y002033D03*
X009524Y002033D03*
D11*
X009599Y002821D03*
X010386Y002821D03*
X010386Y003608D03*
X011174Y003608D03*
X011961Y003608D03*
X011961Y004396D03*
X011961Y005183D03*
X012748Y005183D03*
X012748Y005970D03*
X012552Y006758D03*
X012945Y006758D03*
X012945Y007151D03*
X012552Y007151D03*
X012552Y007545D03*
X012945Y007545D03*
X013536Y007545D03*
X013930Y007545D03*
X014323Y007545D03*
X013930Y007151D03*
X013930Y006758D03*
X013536Y006758D03*
X013536Y007151D03*
X014323Y006758D03*
X015111Y006758D03*
X015111Y007545D03*
X015111Y008333D03*
X015111Y009120D03*
X015111Y009907D03*
X015111Y010695D03*
X015111Y011482D03*
X015111Y012270D03*
X014323Y012270D03*
X013536Y012270D03*
X012748Y013057D03*
X012748Y013844D03*
X011961Y013844D03*
X011174Y013844D03*
X010386Y013844D03*
X009599Y013844D03*
X009205Y013451D03*
X008811Y013451D03*
X008418Y013451D03*
X008811Y013844D03*
X008811Y013057D03*
X008418Y013057D03*
X008418Y012466D03*
X008811Y012466D03*
X008811Y012073D03*
X008418Y012073D03*
X008418Y011482D03*
X008811Y011482D03*
X008811Y011088D03*
X008418Y011088D03*
X008418Y010695D03*
X009205Y010695D03*
X009205Y011088D03*
X009205Y011482D03*
X009205Y012073D03*
X009599Y012073D03*
X009599Y012466D03*
X009205Y012466D03*
X009205Y013057D03*
X010386Y011876D03*
X011174Y011876D03*
X011174Y011088D03*
X011961Y011088D03*
X011961Y010301D03*
X012748Y010301D03*
X012552Y009514D03*
X012945Y009514D03*
X012945Y009120D03*
X012552Y009120D03*
X012552Y008726D03*
X012945Y008726D03*
X012945Y008333D03*
X012552Y008333D03*
X011961Y008333D03*
X011567Y008333D03*
X011567Y008726D03*
X011567Y009120D03*
X011961Y009120D03*
X011961Y008726D03*
X010780Y008333D03*
X010780Y009120D03*
X009993Y009120D03*
X009993Y009907D03*
X009205Y009907D03*
X009205Y009120D03*
X008418Y009120D03*
X008418Y009907D03*
X007630Y009907D03*
X007630Y009120D03*
X006843Y009120D03*
X006843Y009907D03*
X006056Y009907D03*
X006056Y009120D03*
X006056Y008333D03*
X006843Y008333D03*
X007630Y008333D03*
X008418Y008333D03*
X009205Y008333D03*
X009993Y008333D03*
X009993Y007545D03*
X010780Y007545D03*
X010780Y006758D03*
X011567Y006758D03*
X011567Y007151D03*
X011961Y007151D03*
X011961Y006758D03*
X011961Y007545D03*
X011567Y007545D03*
X009993Y006758D03*
X009993Y005970D03*
X010780Y005970D03*
X009993Y005183D03*
X009205Y005183D03*
X008418Y005183D03*
X008418Y005970D03*
X009205Y005970D03*
X009205Y006758D03*
X009205Y007545D03*
X008418Y007545D03*
X008418Y006758D03*
X007630Y006758D03*
X006843Y006758D03*
X006843Y007545D03*
X007630Y007545D03*
X006056Y007545D03*
X006056Y006758D03*
X006056Y005970D03*
X006843Y005970D03*
X006843Y005183D03*
X007630Y005183D03*
X007630Y005970D03*
X007630Y004396D03*
X006843Y004396D03*
X006056Y004396D03*
X006056Y005183D03*
X005268Y005183D03*
X004481Y005183D03*
X003693Y005183D03*
X002906Y005183D03*
X002906Y005970D03*
X003693Y005970D03*
X004481Y005970D03*
X005268Y005970D03*
X005268Y006758D03*
X005268Y007545D03*
X004481Y007545D03*
X004087Y007545D03*
X004087Y007151D03*
X004087Y006758D03*
X004481Y006758D03*
X004481Y007151D03*
X003496Y007151D03*
X003103Y007151D03*
X003103Y006758D03*
X003496Y006758D03*
X003496Y007545D03*
X003103Y007545D03*
X002512Y007545D03*
X002119Y007545D03*
X002119Y007151D03*
X002512Y007151D03*
X002512Y006758D03*
X002119Y006758D03*
X001725Y006758D03*
X001725Y007545D03*
X001725Y008333D03*
X002119Y008333D03*
X002512Y008333D03*
X002512Y008726D03*
X002119Y008726D03*
X002119Y009120D03*
X002512Y009120D03*
X003103Y009120D03*
X003496Y009120D03*
X003496Y008726D03*
X003103Y008726D03*
X003103Y008333D03*
X003496Y008333D03*
X004087Y008333D03*
X004481Y008333D03*
X004481Y008726D03*
X004481Y009120D03*
X004087Y009120D03*
X004087Y008726D03*
X003496Y009514D03*
X003103Y009514D03*
X003300Y010301D03*
X004087Y010301D03*
X004087Y011088D03*
X004874Y011088D03*
X004874Y011876D03*
X005662Y011876D03*
X006449Y012073D03*
X006843Y012073D03*
X006843Y012466D03*
X006449Y012466D03*
X006843Y013057D03*
X007237Y013057D03*
X007630Y013057D03*
X007630Y013451D03*
X007237Y013451D03*
X007237Y013844D03*
X006843Y013451D03*
X006449Y013844D03*
X005662Y013844D03*
X004874Y013844D03*
X004087Y013844D03*
X003300Y013844D03*
X003300Y013057D03*
X002512Y012270D03*
X001725Y012270D03*
X000937Y012270D03*
X000937Y011482D03*
X000937Y010695D03*
X000937Y009907D03*
X000937Y009120D03*
X000937Y008333D03*
X000937Y007545D03*
X000937Y006758D03*
X001331Y005970D03*
X001331Y005183D03*
X001331Y004396D03*
X002119Y004396D03*
X002906Y004396D03*
X003693Y004396D03*
X004481Y004396D03*
X005268Y004396D03*
X005268Y003608D03*
X005268Y002821D03*
X004481Y002821D03*
X003693Y002821D03*
X003693Y003608D03*
X004481Y003608D03*
X002906Y003608D03*
X003693Y002033D03*
X004481Y002033D03*
X005268Y002033D03*
X006056Y002821D03*
X006843Y002821D03*
X006843Y003608D03*
X007630Y003608D03*
X007630Y002821D03*
X008418Y003608D03*
X008418Y004396D03*
X009205Y004396D03*
X011174Y004396D03*
X012748Y004396D03*
X013536Y003608D03*
X014323Y004396D03*
X014323Y005183D03*
X014323Y005970D03*
X015111Y005970D03*
X015111Y005183D03*
X015111Y004396D03*
X015111Y003608D03*
X012748Y002821D03*
X011174Y002821D03*
X010386Y002033D03*
X010386Y001640D03*
X006056Y003608D03*
X002119Y005183D03*
X002119Y005970D03*
X005268Y008333D03*
X005268Y009120D03*
X006843Y010695D03*
X006843Y011088D03*
X006843Y011482D03*
X007237Y011482D03*
X007630Y011482D03*
X007630Y011088D03*
X007237Y011088D03*
X007630Y010695D03*
X007630Y012073D03*
X007237Y012073D03*
X007237Y012466D03*
X007630Y012466D03*
X007237Y014632D03*
X006449Y014632D03*
X005662Y014632D03*
X004874Y014632D03*
X004087Y014632D03*
X003300Y014632D03*
X001725Y011482D03*
X001725Y010695D03*
X001725Y009907D03*
X001725Y009120D03*
X008811Y014632D03*
X009599Y014632D03*
X010386Y014632D03*
X011174Y014632D03*
X011961Y014632D03*
X012748Y014632D03*
X014323Y011482D03*
X014323Y010695D03*
X014323Y009907D03*
X014323Y009120D03*
X013930Y009120D03*
X013930Y008726D03*
X013536Y008726D03*
X013536Y009120D03*
X013536Y008333D03*
X013930Y008333D03*
X014323Y008333D03*
D12*
X000300Y007939D02*
X000300Y001002D01*
X007040Y001002D01*
X007040Y001909D01*
X007029Y001935D01*
X007029Y002132D01*
X007040Y002158D01*
X007040Y007939D01*
X000300Y007939D01*
X000300Y007846D02*
X007040Y007846D01*
X007040Y007747D02*
X000300Y007747D01*
X000300Y007649D02*
X007040Y007649D01*
X007040Y007550D02*
X000300Y007550D01*
X000300Y007452D02*
X007040Y007452D01*
X007040Y007353D02*
X000300Y007353D01*
X000300Y007255D02*
X007040Y007255D01*
X007040Y007156D02*
X000300Y007156D01*
X000300Y007058D02*
X007040Y007058D01*
X007040Y006959D02*
X000300Y006959D01*
X000300Y006861D02*
X007040Y006861D01*
X007040Y006762D02*
X000300Y006762D01*
X000300Y006664D02*
X007040Y006664D01*
X007040Y006565D02*
X000300Y006565D01*
X000300Y006467D02*
X007040Y006467D01*
X007040Y006368D02*
X000300Y006368D01*
X000300Y006270D02*
X007040Y006270D01*
X007040Y006171D02*
X000300Y006171D01*
X000300Y006073D02*
X007040Y006073D01*
X007040Y005974D02*
X000300Y005974D01*
X000300Y005876D02*
X007040Y005876D01*
X007040Y005777D02*
X000300Y005777D01*
X000300Y005679D02*
X007040Y005679D01*
X007040Y005580D02*
X000300Y005580D01*
X000300Y005482D02*
X007040Y005482D01*
X007040Y005383D02*
X000300Y005383D01*
X000300Y005285D02*
X007040Y005285D01*
X007040Y005186D02*
X000300Y005186D01*
X000300Y005088D02*
X007040Y005088D01*
X007040Y004989D02*
X000300Y004989D01*
X000300Y004891D02*
X007040Y004891D01*
X007040Y004792D02*
X000300Y004792D01*
X000300Y004694D02*
X007040Y004694D01*
X007040Y004595D02*
X000300Y004595D01*
X000300Y004497D02*
X007040Y004497D01*
X007040Y004398D02*
X000300Y004398D01*
X000300Y004300D02*
X007040Y004300D01*
X007040Y004201D02*
X000300Y004201D01*
X000300Y004103D02*
X007040Y004103D01*
X007040Y004004D02*
X000300Y004004D01*
X000300Y003906D02*
X007040Y003906D01*
X007040Y003807D02*
X000300Y003807D01*
X000300Y003709D02*
X007040Y003709D01*
X007040Y003610D02*
X000300Y003610D01*
X000300Y003512D02*
X007040Y003512D01*
X007040Y003413D02*
X000300Y003413D01*
X000300Y003315D02*
X001474Y003315D01*
X001563Y003347D02*
X001258Y003236D01*
X001258Y003236D01*
X001009Y003028D01*
X001009Y003028D01*
X001009Y003028D01*
X000847Y002747D01*
X000847Y002747D01*
X000791Y002427D01*
X000847Y002108D01*
X000847Y002108D01*
X001009Y001827D01*
X001258Y001618D01*
X001563Y001507D01*
X001804Y001507D01*
X001887Y001507D01*
X001887Y001507D01*
X002192Y001618D01*
X002440Y001827D01*
X002603Y002108D01*
X002659Y002427D01*
X002659Y002427D01*
X002603Y002747D01*
X002440Y003028D01*
X002192Y003236D01*
X001887Y003347D01*
X001563Y003347D01*
X001234Y003216D02*
X000300Y003216D01*
X000300Y003118D02*
X001117Y003118D01*
X001004Y003019D02*
X000300Y003019D01*
X000300Y002921D02*
X000948Y002921D01*
X000891Y002822D02*
X000300Y002822D01*
X000300Y002724D02*
X000843Y002724D01*
X000826Y002625D02*
X000300Y002625D01*
X000300Y002527D02*
X000808Y002527D01*
X000791Y002428D02*
X000300Y002428D01*
X000300Y002330D02*
X000808Y002330D01*
X000791Y002427D02*
X000791Y002427D01*
X000825Y002231D02*
X000300Y002231D01*
X000300Y002133D02*
X000843Y002133D01*
X000889Y002034D02*
X000300Y002034D01*
X000300Y001936D02*
X000946Y001936D01*
X001003Y001837D02*
X000300Y001837D01*
X000300Y001739D02*
X001114Y001739D01*
X001009Y001827D02*
X001009Y001827D01*
X001231Y001640D02*
X000300Y001640D01*
X000300Y001542D02*
X001467Y001542D01*
X001258Y001618D02*
X001258Y001618D01*
X001982Y001542D02*
X007040Y001542D01*
X007040Y001640D02*
X002218Y001640D01*
X002192Y001618D02*
X002192Y001618D01*
X002336Y001739D02*
X007040Y001739D01*
X007040Y001837D02*
X002447Y001837D01*
X002440Y001827D02*
X002440Y001827D01*
X002440Y001827D01*
X002503Y001936D02*
X007029Y001936D01*
X007029Y002034D02*
X002560Y002034D01*
X002603Y002108D02*
X002603Y002108D01*
X002607Y002133D02*
X007029Y002133D01*
X007040Y002231D02*
X002624Y002231D01*
X002642Y002330D02*
X007040Y002330D01*
X007040Y002428D02*
X002659Y002428D01*
X002641Y002527D02*
X007040Y002527D01*
X007040Y002625D02*
X002624Y002625D01*
X002607Y002724D02*
X007040Y002724D01*
X007040Y002822D02*
X002559Y002822D01*
X002603Y002747D02*
X002603Y002747D01*
X002502Y002921D02*
X007040Y002921D01*
X007040Y003019D02*
X002445Y003019D01*
X002440Y003028D02*
X002440Y003028D01*
X002333Y003118D02*
X007040Y003118D01*
X007040Y003216D02*
X002216Y003216D01*
X002192Y003236D02*
X002192Y003236D01*
X001976Y003315D02*
X007040Y003315D01*
X007240Y003315D02*
X009699Y003315D01*
X009798Y003413D02*
X007240Y003413D01*
X007240Y003512D02*
X009896Y003512D01*
X009995Y003610D02*
X007240Y003610D01*
X007240Y003709D02*
X010093Y003709D01*
X010110Y003726D02*
X010132Y003778D01*
X010216Y003862D01*
X010268Y003884D01*
X010898Y004513D01*
X010919Y004565D01*
X011004Y004650D01*
X011056Y004671D01*
X011685Y005301D01*
X011707Y005353D01*
X011791Y005437D01*
X011843Y005459D01*
X012197Y005813D01*
X012197Y007939D01*
X007240Y007939D01*
X007240Y001002D01*
X008024Y001002D01*
X008024Y002427D01*
X008418Y002821D01*
X009205Y002821D01*
X009323Y002938D01*
X009344Y002991D01*
X009429Y003075D01*
X009481Y003097D01*
X010110Y003726D01*
X010161Y003807D02*
X007240Y003807D01*
X007240Y003906D02*
X010290Y003906D01*
X010389Y004004D02*
X007240Y004004D01*
X007240Y004103D02*
X010487Y004103D01*
X010586Y004201D02*
X007240Y004201D01*
X007240Y004300D02*
X010684Y004300D01*
X010783Y004398D02*
X007240Y004398D01*
X007240Y004497D02*
X010881Y004497D01*
X010949Y004595D02*
X007240Y004595D01*
X007240Y004694D02*
X011078Y004694D01*
X011177Y004792D02*
X007240Y004792D01*
X007240Y004891D02*
X011275Y004891D01*
X011374Y004989D02*
X007240Y004989D01*
X007240Y005088D02*
X011472Y005088D01*
X011571Y005186D02*
X007240Y005186D01*
X007240Y005285D02*
X011669Y005285D01*
X011737Y005383D02*
X007240Y005383D01*
X007240Y005482D02*
X011866Y005482D01*
X011965Y005580D02*
X007240Y005580D01*
X007240Y005679D02*
X012063Y005679D01*
X012162Y005777D02*
X007240Y005777D01*
X007240Y005876D02*
X012197Y005876D01*
X012197Y005974D02*
X007240Y005974D01*
X007240Y006073D02*
X012197Y006073D01*
X012197Y006171D02*
X007240Y006171D01*
X007240Y006270D02*
X012197Y006270D01*
X012197Y006368D02*
X007240Y006368D01*
X007240Y006467D02*
X012197Y006467D01*
X012197Y006565D02*
X007240Y006565D01*
X007240Y006664D02*
X012197Y006664D01*
X012197Y006762D02*
X007240Y006762D01*
X007240Y006861D02*
X012197Y006861D01*
X012197Y006959D02*
X007240Y006959D01*
X007240Y007058D02*
X012197Y007058D01*
X012197Y007156D02*
X007240Y007156D01*
X007240Y007255D02*
X012197Y007255D01*
X012197Y007353D02*
X007240Y007353D01*
X007240Y007452D02*
X012197Y007452D01*
X012197Y007550D02*
X007240Y007550D01*
X007240Y007649D02*
X012197Y007649D01*
X012197Y007747D02*
X007240Y007747D01*
X007240Y007846D02*
X012197Y007846D01*
X012197Y008139D02*
X008224Y008139D01*
X008224Y011718D01*
X010071Y011718D01*
X012197Y009592D01*
X012197Y008139D01*
X012197Y008141D02*
X008224Y008141D01*
X008224Y008240D02*
X012197Y008240D01*
X012197Y008338D02*
X008224Y008338D01*
X008224Y008437D02*
X012197Y008437D01*
X012197Y008535D02*
X008224Y008535D01*
X008224Y008634D02*
X012197Y008634D01*
X012197Y008732D02*
X008224Y008732D01*
X008224Y008831D02*
X012197Y008831D01*
X012197Y008929D02*
X008224Y008929D01*
X008224Y009028D02*
X012197Y009028D01*
X012197Y009126D02*
X008224Y009126D01*
X008224Y009225D02*
X012197Y009225D01*
X012197Y009323D02*
X008224Y009323D01*
X008224Y009422D02*
X012197Y009422D01*
X012197Y009520D02*
X008224Y009520D01*
X008224Y009619D02*
X012171Y009619D01*
X012072Y009717D02*
X008224Y009717D01*
X008224Y009816D02*
X011974Y009816D01*
X011875Y009914D02*
X008224Y009914D01*
X008224Y010013D02*
X011777Y010013D01*
X011678Y010111D02*
X008224Y010111D01*
X008224Y010210D02*
X011580Y010210D01*
X011481Y010308D02*
X008224Y010308D01*
X008224Y010407D02*
X011383Y010407D01*
X011284Y010505D02*
X008224Y010505D01*
X008224Y010604D02*
X011186Y010604D01*
X011087Y010702D02*
X008224Y010702D01*
X008224Y010801D02*
X010989Y010801D01*
X010890Y010899D02*
X008224Y010899D01*
X008224Y010998D02*
X010792Y010998D01*
X010693Y011096D02*
X008224Y011096D01*
X008224Y011195D02*
X010595Y011195D01*
X010496Y011293D02*
X008224Y011293D01*
X008224Y011392D02*
X010398Y011392D01*
X010299Y011490D02*
X008224Y011490D01*
X008224Y011589D02*
X010201Y011589D01*
X010102Y011687D02*
X008224Y011687D01*
X008024Y011687D02*
X005946Y011687D01*
X005977Y011718D02*
X008024Y011718D01*
X008024Y008139D01*
X003851Y008139D01*
X003851Y009592D01*
X005977Y011718D01*
X005847Y011589D02*
X008024Y011589D01*
X008024Y011490D02*
X005749Y011490D01*
X005650Y011392D02*
X008024Y011392D01*
X008024Y011293D02*
X005552Y011293D01*
X005453Y011195D02*
X008024Y011195D01*
X008024Y011096D02*
X005355Y011096D01*
X005256Y010998D02*
X008024Y010998D01*
X008024Y010899D02*
X005158Y010899D01*
X005059Y010801D02*
X008024Y010801D01*
X008024Y010702D02*
X004961Y010702D01*
X004862Y010604D02*
X008024Y010604D01*
X008024Y010505D02*
X004764Y010505D01*
X004665Y010407D02*
X008024Y010407D01*
X008024Y010308D02*
X004567Y010308D01*
X004468Y010210D02*
X008024Y010210D01*
X008024Y010111D02*
X004370Y010111D01*
X004271Y010013D02*
X008024Y010013D01*
X008024Y009914D02*
X004173Y009914D01*
X004074Y009816D02*
X008024Y009816D01*
X008024Y009717D02*
X003976Y009717D01*
X003877Y009619D02*
X008024Y009619D01*
X008024Y009520D02*
X003851Y009520D01*
X003851Y009422D02*
X008024Y009422D01*
X008024Y009323D02*
X003851Y009323D01*
X003851Y009225D02*
X008024Y009225D01*
X008024Y009126D02*
X003851Y009126D01*
X003851Y009028D02*
X008024Y009028D01*
X008024Y008929D02*
X003851Y008929D01*
X003851Y008831D02*
X008024Y008831D01*
X008024Y008732D02*
X003851Y008732D01*
X003851Y008634D02*
X008024Y008634D01*
X008024Y008535D02*
X003851Y008535D01*
X003851Y008437D02*
X008024Y008437D01*
X008024Y008338D02*
X003851Y008338D01*
X003851Y008240D02*
X008024Y008240D01*
X008024Y008141D02*
X003851Y008141D01*
X007240Y003216D02*
X009601Y003216D01*
X009502Y003118D02*
X007240Y003118D01*
X007240Y003019D02*
X009373Y003019D01*
X009305Y002921D02*
X007240Y002921D01*
X007240Y002822D02*
X009207Y002822D01*
X009008Y002427D02*
X011961Y002427D01*
X011961Y001002D01*
X009008Y001002D01*
X009008Y001909D01*
X009019Y001935D01*
X009019Y002132D01*
X009008Y002158D01*
X009008Y002427D01*
X009008Y002330D02*
X011961Y002330D01*
X011961Y002231D02*
X009008Y002231D01*
X009019Y002133D02*
X011961Y002133D01*
X011961Y002034D02*
X009019Y002034D01*
X009019Y001936D02*
X011961Y001936D01*
X011961Y001837D02*
X009008Y001837D01*
X009008Y001739D02*
X011961Y001739D01*
X011961Y001640D02*
X009008Y001640D01*
X009008Y001542D02*
X011961Y001542D01*
X011961Y001443D02*
X009008Y001443D01*
X009008Y001345D02*
X011961Y001345D01*
X011961Y001246D02*
X009008Y001246D01*
X009008Y001148D02*
X011961Y001148D01*
X011961Y001049D02*
X009008Y001049D01*
X008024Y001049D02*
X007240Y001049D01*
X007240Y001148D02*
X008024Y001148D01*
X008024Y001246D02*
X007240Y001246D01*
X007240Y001345D02*
X008024Y001345D01*
X008024Y001443D02*
X007240Y001443D01*
X007240Y001542D02*
X008024Y001542D01*
X008024Y001640D02*
X007240Y001640D01*
X007240Y001739D02*
X008024Y001739D01*
X008024Y001837D02*
X007240Y001837D01*
X007240Y001936D02*
X008024Y001936D01*
X008024Y002034D02*
X007240Y002034D01*
X007240Y002133D02*
X008024Y002133D01*
X008024Y002231D02*
X007240Y002231D01*
X007240Y002330D02*
X008024Y002330D01*
X008025Y002428D02*
X007240Y002428D01*
X007240Y002527D02*
X008124Y002527D01*
X008222Y002625D02*
X007240Y002625D01*
X007240Y002724D02*
X008321Y002724D01*
X007040Y001443D02*
X000300Y001443D01*
X000300Y001345D02*
X007040Y001345D01*
X007040Y001246D02*
X000300Y001246D01*
X000300Y001148D02*
X007040Y001148D01*
X007040Y001049D02*
X000300Y001049D01*
D13*
X000289Y008128D02*
X000289Y015280D01*
X008024Y015280D01*
X008024Y012821D01*
X005898Y012821D01*
X005268Y013451D01*
X004481Y013451D01*
X002119Y011088D01*
X002119Y010222D01*
X002748Y009592D01*
X002748Y008128D01*
X000289Y008128D01*
X000289Y008190D02*
X002748Y008190D01*
X002748Y008267D02*
X000289Y008267D01*
X000289Y008345D02*
X002748Y008345D01*
X002748Y008422D02*
X000289Y008422D01*
X000289Y008499D02*
X002748Y008499D01*
X002748Y008576D02*
X000289Y008576D01*
X000289Y008654D02*
X002748Y008654D01*
X002748Y008731D02*
X000289Y008731D01*
X000289Y008808D02*
X002748Y008808D01*
X002748Y008885D02*
X000289Y008885D01*
X000289Y008962D02*
X002748Y008962D01*
X002748Y009040D02*
X000289Y009040D01*
X000289Y009117D02*
X002748Y009117D01*
X002748Y009194D02*
X000289Y009194D01*
X000289Y009271D02*
X002748Y009271D01*
X002748Y009349D02*
X000289Y009349D01*
X000289Y009426D02*
X002748Y009426D01*
X002748Y009503D02*
X000289Y009503D01*
X000289Y009580D02*
X002748Y009580D01*
X002683Y009658D02*
X000289Y009658D01*
X000289Y009735D02*
X002606Y009735D01*
X002529Y009812D02*
X000289Y009812D01*
X000289Y009889D02*
X002451Y009889D01*
X002374Y009967D02*
X000289Y009967D01*
X000289Y010044D02*
X002297Y010044D01*
X002220Y010121D02*
X000289Y010121D01*
X000289Y010198D02*
X002142Y010198D01*
X002119Y010276D02*
X000289Y010276D01*
X000289Y010353D02*
X002119Y010353D01*
X002119Y010430D02*
X000289Y010430D01*
X000289Y010507D02*
X002119Y010507D01*
X002119Y010585D02*
X000289Y010585D01*
X000289Y010662D02*
X002119Y010662D01*
X002119Y010739D02*
X000289Y010739D01*
X000289Y010816D02*
X002119Y010816D01*
X002119Y010893D02*
X000289Y010893D01*
X000289Y010971D02*
X002119Y010971D01*
X002119Y011048D02*
X000289Y011048D01*
X000289Y011125D02*
X002155Y011125D01*
X002232Y011202D02*
X000289Y011202D01*
X000289Y011280D02*
X002310Y011280D01*
X002387Y011357D02*
X000289Y011357D01*
X000289Y011434D02*
X002464Y011434D01*
X002541Y011511D02*
X000289Y011511D01*
X000289Y011589D02*
X002619Y011589D01*
X002696Y011666D02*
X000289Y011666D01*
X000289Y011743D02*
X002773Y011743D01*
X002850Y011820D02*
X000289Y011820D01*
X000289Y011898D02*
X002928Y011898D01*
X003005Y011975D02*
X000289Y011975D01*
X000289Y012052D02*
X003082Y012052D01*
X003159Y012129D02*
X000289Y012129D01*
X000289Y012207D02*
X003237Y012207D01*
X003314Y012284D02*
X000289Y012284D01*
X000289Y012361D02*
X003391Y012361D01*
X003468Y012438D02*
X000289Y012438D01*
X000289Y012516D02*
X003546Y012516D01*
X003623Y012593D02*
X000289Y012593D01*
X000289Y012670D02*
X003700Y012670D01*
X003777Y012747D02*
X000289Y012747D01*
X000289Y012824D02*
X003855Y012824D01*
X003932Y012902D02*
X000289Y012902D01*
X000289Y012979D02*
X001444Y012979D01*
X001564Y012935D02*
X001651Y012935D01*
X001885Y012935D01*
X002187Y013045D01*
X002432Y013251D01*
X002593Y013529D01*
X002648Y013844D01*
X002648Y013844D01*
X002593Y014160D01*
X002432Y014438D01*
X002187Y014644D01*
X002187Y014644D01*
X001885Y014754D01*
X001564Y014754D01*
X001263Y014644D01*
X001017Y014438D01*
X000857Y014160D01*
X000801Y013844D01*
X000857Y013529D01*
X001017Y013251D01*
X001263Y013045D01*
X001263Y013045D01*
X001564Y012935D01*
X001249Y013056D02*
X000289Y013056D01*
X000289Y013133D02*
X001157Y013133D01*
X001065Y013211D02*
X000289Y013211D01*
X000289Y013288D02*
X000996Y013288D01*
X000951Y013365D02*
X000289Y013365D01*
X000289Y013442D02*
X000907Y013442D01*
X000862Y013520D02*
X000289Y013520D01*
X000289Y013597D02*
X000845Y013597D01*
X000857Y013529D02*
X000857Y013529D01*
X000831Y013674D02*
X000289Y013674D01*
X000289Y013751D02*
X000818Y013751D01*
X000804Y013829D02*
X000289Y013829D01*
X000289Y013906D02*
X000812Y013906D01*
X000801Y013844D02*
X000801Y013844D01*
X000826Y013983D02*
X000289Y013983D01*
X000289Y014060D02*
X000839Y014060D01*
X000853Y014138D02*
X000289Y014138D01*
X000289Y014215D02*
X000889Y014215D01*
X000857Y014160D02*
X000857Y014160D01*
X000933Y014292D02*
X000289Y014292D01*
X000289Y014369D02*
X000978Y014369D01*
X001017Y014438D02*
X001017Y014438D01*
X001017Y014438D01*
X001028Y014447D02*
X000289Y014447D01*
X000289Y014524D02*
X001120Y014524D01*
X001212Y014601D02*
X000289Y014601D01*
X000289Y014678D02*
X001357Y014678D01*
X001263Y014644D02*
X001263Y014644D01*
X002092Y014678D02*
X008024Y014678D01*
X008024Y014601D02*
X002238Y014601D01*
X002330Y014524D02*
X008024Y014524D01*
X008024Y014447D02*
X002422Y014447D01*
X002432Y014438D02*
X002432Y014438D01*
X002472Y014369D02*
X008024Y014369D01*
X008024Y014292D02*
X002516Y014292D01*
X002561Y014215D02*
X008024Y014215D01*
X008024Y014138D02*
X002596Y014138D01*
X002593Y014160D02*
X002593Y014160D01*
X002610Y014060D02*
X008024Y014060D01*
X008024Y013983D02*
X002624Y013983D01*
X002637Y013906D02*
X008024Y013906D01*
X008024Y013829D02*
X002645Y013829D01*
X002632Y013751D02*
X008024Y013751D01*
X008024Y013674D02*
X002618Y013674D01*
X002605Y013597D02*
X008024Y013597D01*
X008024Y013520D02*
X002587Y013520D01*
X002593Y013529D02*
X002593Y013529D01*
X002543Y013442D02*
X004472Y013442D01*
X004395Y013365D02*
X002498Y013365D01*
X002454Y013288D02*
X004318Y013288D01*
X004241Y013211D02*
X002384Y013211D01*
X002432Y013251D02*
X002432Y013251D01*
X002432Y013251D01*
X002292Y013133D02*
X004164Y013133D01*
X004086Y013056D02*
X002200Y013056D01*
X002187Y013045D02*
X002187Y013045D01*
X002006Y012979D02*
X004009Y012979D01*
X004107Y012824D02*
X005641Y012824D01*
X005564Y012902D02*
X004185Y012902D01*
X004262Y012979D02*
X005487Y012979D01*
X005410Y013056D02*
X004339Y013056D01*
X004416Y013133D02*
X005333Y013133D01*
X005255Y013211D02*
X004494Y013211D01*
X004555Y013272D02*
X005194Y013272D01*
X005719Y012747D01*
X004030Y012747D01*
X003953Y012670D02*
X005796Y012670D01*
X005824Y012642D02*
X008024Y012642D01*
X008024Y011908D01*
X005898Y011908D01*
X005787Y011797D01*
X003772Y009782D01*
X003661Y009671D01*
X003661Y008128D01*
X002927Y008128D01*
X002927Y009666D01*
X002822Y009771D01*
X002297Y010296D01*
X002297Y011014D01*
X004555Y013272D01*
X005276Y013442D02*
X008024Y013442D01*
X008024Y013365D02*
X005354Y013365D01*
X005431Y013288D02*
X008024Y013288D01*
X008024Y013211D02*
X005508Y013211D01*
X005585Y013133D02*
X008024Y013133D01*
X008024Y013056D02*
X005663Y013056D01*
X005740Y012979D02*
X008024Y012979D01*
X008024Y012902D02*
X005817Y012902D01*
X005894Y012824D02*
X008024Y012824D01*
X008203Y012824D02*
X010154Y012824D01*
X010150Y012821D02*
X008203Y012821D01*
X008203Y015280D01*
X015759Y015280D01*
X015759Y008118D01*
X013300Y008118D01*
X013300Y009592D01*
X013930Y010222D01*
X013930Y011088D01*
X011567Y013451D01*
X010780Y013451D01*
X010150Y012821D01*
X010231Y012902D02*
X008203Y012902D01*
X008203Y012979D02*
X010308Y012979D01*
X010385Y013056D02*
X008203Y013056D01*
X008203Y013133D02*
X010463Y013133D01*
X010540Y013211D02*
X008203Y013211D01*
X008203Y013288D02*
X010617Y013288D01*
X010694Y013365D02*
X008203Y013365D01*
X008203Y013442D02*
X010772Y013442D01*
X010854Y013272D02*
X011493Y013272D01*
X013751Y011014D01*
X013751Y010296D01*
X013121Y009666D01*
X013121Y008118D01*
X012387Y008118D01*
X012387Y009514D01*
X012387Y009671D01*
X010261Y011797D01*
X010150Y011908D01*
X008203Y011908D01*
X008203Y012642D01*
X010224Y012642D01*
X010329Y012747D01*
X012018Y012747D01*
X012095Y012670D02*
X010252Y012670D01*
X010329Y012747D02*
X010854Y013272D01*
X010793Y013211D02*
X011555Y013211D01*
X011632Y013133D02*
X010715Y013133D01*
X010638Y013056D02*
X011709Y013056D01*
X011786Y012979D02*
X010561Y012979D01*
X010484Y012902D02*
X011863Y012902D01*
X011941Y012824D02*
X010407Y012824D01*
X010160Y011898D02*
X012868Y011898D01*
X012945Y011820D02*
X010237Y011820D01*
X010314Y011743D02*
X013022Y011743D01*
X013099Y011666D02*
X010392Y011666D01*
X010469Y011589D02*
X013177Y011589D01*
X013254Y011511D02*
X010546Y011511D01*
X010623Y011434D02*
X013331Y011434D01*
X013408Y011357D02*
X010701Y011357D01*
X010778Y011280D02*
X013486Y011280D01*
X013563Y011202D02*
X010855Y011202D01*
X010932Y011125D02*
X013640Y011125D01*
X013717Y011048D02*
X011009Y011048D01*
X011087Y010971D02*
X013751Y010971D01*
X013751Y010893D02*
X011164Y010893D01*
X011241Y010816D02*
X013751Y010816D01*
X013751Y010739D02*
X011318Y010739D01*
X011396Y010662D02*
X013751Y010662D01*
X013751Y010585D02*
X011473Y010585D01*
X011550Y010507D02*
X013751Y010507D01*
X013751Y010430D02*
X011627Y010430D01*
X011705Y010353D02*
X013751Y010353D01*
X013730Y010276D02*
X011782Y010276D01*
X011859Y010198D02*
X013653Y010198D01*
X013576Y010121D02*
X011936Y010121D01*
X012014Y010044D02*
X013498Y010044D01*
X013421Y009967D02*
X012091Y009967D01*
X012168Y009889D02*
X013344Y009889D01*
X013267Y009812D02*
X012245Y009812D01*
X012323Y009735D02*
X013189Y009735D01*
X013121Y009658D02*
X012387Y009658D01*
X012387Y009580D02*
X013121Y009580D01*
X013121Y009503D02*
X012387Y009503D01*
X012387Y009426D02*
X013121Y009426D01*
X013121Y009349D02*
X012387Y009349D01*
X012387Y009271D02*
X013121Y009271D01*
X013121Y009194D02*
X012387Y009194D01*
X012387Y009117D02*
X013121Y009117D01*
X013121Y009040D02*
X012387Y009040D01*
X012387Y008962D02*
X013121Y008962D01*
X013121Y008885D02*
X012387Y008885D01*
X012387Y008808D02*
X013121Y008808D01*
X013121Y008731D02*
X012387Y008731D01*
X012387Y008654D02*
X013121Y008654D01*
X013121Y008576D02*
X012387Y008576D01*
X012387Y008499D02*
X013121Y008499D01*
X013121Y008422D02*
X012387Y008422D01*
X012387Y008345D02*
X013121Y008345D01*
X013121Y008267D02*
X012387Y008267D01*
X012387Y008190D02*
X013121Y008190D01*
X013300Y008190D02*
X015759Y008190D01*
X015759Y008267D02*
X013300Y008267D01*
X013300Y008345D02*
X015759Y008345D01*
X015759Y008422D02*
X013300Y008422D01*
X013300Y008499D02*
X015759Y008499D01*
X015759Y008576D02*
X013300Y008576D01*
X013300Y008654D02*
X015759Y008654D01*
X015759Y008731D02*
X013300Y008731D01*
X013300Y008808D02*
X015759Y008808D01*
X015759Y008885D02*
X013300Y008885D01*
X013300Y008962D02*
X015759Y008962D01*
X015759Y009040D02*
X013300Y009040D01*
X013300Y009117D02*
X015759Y009117D01*
X015759Y009194D02*
X013300Y009194D01*
X013300Y009271D02*
X015759Y009271D01*
X015759Y009349D02*
X013300Y009349D01*
X013300Y009426D02*
X015759Y009426D01*
X015759Y009503D02*
X013300Y009503D01*
X013300Y009580D02*
X015759Y009580D01*
X015759Y009658D02*
X013365Y009658D01*
X013442Y009735D02*
X015759Y009735D01*
X015759Y009812D02*
X013519Y009812D01*
X013597Y009889D02*
X015759Y009889D01*
X015759Y009967D02*
X013674Y009967D01*
X013751Y010044D02*
X015759Y010044D01*
X015759Y010121D02*
X013828Y010121D01*
X013906Y010198D02*
X015759Y010198D01*
X015759Y010276D02*
X013930Y010276D01*
X013930Y010353D02*
X015759Y010353D01*
X015759Y010430D02*
X013930Y010430D01*
X013930Y010507D02*
X015759Y010507D01*
X015759Y010585D02*
X013930Y010585D01*
X013930Y010662D02*
X015759Y010662D01*
X015759Y010739D02*
X013930Y010739D01*
X013930Y010816D02*
X015759Y010816D01*
X015759Y010893D02*
X013930Y010893D01*
X013930Y010971D02*
X015759Y010971D01*
X015759Y011048D02*
X013930Y011048D01*
X013893Y011125D02*
X015759Y011125D01*
X015759Y011202D02*
X013816Y011202D01*
X013738Y011280D02*
X015759Y011280D01*
X015759Y011357D02*
X013661Y011357D01*
X013584Y011434D02*
X015759Y011434D01*
X015759Y011511D02*
X013507Y011511D01*
X013429Y011589D02*
X015759Y011589D01*
X015759Y011666D02*
X013352Y011666D01*
X013275Y011743D02*
X015759Y011743D01*
X015759Y011820D02*
X013198Y011820D01*
X013120Y011898D02*
X015759Y011898D01*
X015759Y011975D02*
X013043Y011975D01*
X012966Y012052D02*
X015759Y012052D01*
X015759Y012129D02*
X012889Y012129D01*
X012811Y012207D02*
X015759Y012207D01*
X015759Y012284D02*
X012734Y012284D01*
X012657Y012361D02*
X015759Y012361D01*
X015759Y012438D02*
X012580Y012438D01*
X012502Y012516D02*
X015759Y012516D01*
X015759Y012593D02*
X012425Y012593D01*
X012348Y012670D02*
X015759Y012670D01*
X015759Y012747D02*
X012271Y012747D01*
X012193Y012824D02*
X015759Y012824D01*
X015759Y012902D02*
X012116Y012902D01*
X012039Y012979D02*
X014042Y012979D01*
X014163Y012935D02*
X013862Y013045D01*
X013862Y013045D01*
X013616Y013251D01*
X013616Y013251D01*
X013456Y013529D01*
X013456Y013529D01*
X013400Y013844D01*
X013400Y013844D01*
X013456Y014160D01*
X013456Y014160D01*
X013616Y014438D01*
X013616Y014438D01*
X013862Y014644D01*
X013862Y014644D01*
X014163Y014754D01*
X014484Y014754D01*
X014785Y014644D01*
X014785Y014644D01*
X015031Y014438D01*
X015031Y014438D01*
X015191Y014160D01*
X015191Y014160D01*
X015247Y013844D01*
X015247Y013844D01*
X015191Y013529D01*
X015191Y013529D01*
X015031Y013251D01*
X015031Y013251D01*
X015031Y013251D01*
X014785Y013045D01*
X014785Y013045D01*
X014484Y012935D01*
X014484Y012935D01*
X014398Y012935D01*
X014163Y012935D01*
X013848Y013056D02*
X011962Y013056D01*
X011885Y013133D02*
X013756Y013133D01*
X013664Y013211D02*
X011807Y013211D01*
X011730Y013288D02*
X013594Y013288D01*
X013550Y013365D02*
X011653Y013365D01*
X011576Y013442D02*
X013505Y013442D01*
X013461Y013520D02*
X008203Y013520D01*
X008203Y013597D02*
X013443Y013597D01*
X013430Y013674D02*
X008203Y013674D01*
X008203Y013751D02*
X013416Y013751D01*
X013403Y013829D02*
X008203Y013829D01*
X008203Y013906D02*
X013411Y013906D01*
X013424Y013983D02*
X008203Y013983D01*
X008203Y014060D02*
X013438Y014060D01*
X013452Y014138D02*
X008203Y014138D01*
X008203Y014215D02*
X013487Y014215D01*
X013532Y014292D02*
X008203Y014292D01*
X008203Y014369D02*
X013576Y014369D01*
X013616Y014438D02*
X013616Y014438D01*
X013626Y014447D02*
X008203Y014447D01*
X008203Y014524D02*
X013718Y014524D01*
X013810Y014601D02*
X008203Y014601D01*
X008203Y014678D02*
X013956Y014678D01*
X014691Y014678D02*
X015759Y014678D01*
X015759Y014601D02*
X014836Y014601D01*
X014928Y014524D02*
X015759Y014524D01*
X015759Y014447D02*
X015020Y014447D01*
X015070Y014369D02*
X015759Y014369D01*
X015759Y014292D02*
X015115Y014292D01*
X015159Y014215D02*
X015759Y014215D01*
X015759Y014138D02*
X015195Y014138D01*
X015209Y014060D02*
X015759Y014060D01*
X015759Y013983D02*
X015222Y013983D01*
X015236Y013906D02*
X015759Y013906D01*
X015759Y013829D02*
X015244Y013829D01*
X015230Y013751D02*
X015759Y013751D01*
X015759Y013674D02*
X015217Y013674D01*
X015203Y013597D02*
X015759Y013597D01*
X015759Y013520D02*
X015186Y013520D01*
X015141Y013442D02*
X015759Y013442D01*
X015759Y013365D02*
X015097Y013365D01*
X015052Y013288D02*
X015759Y013288D01*
X015759Y013211D02*
X014983Y013211D01*
X014891Y013133D02*
X015759Y013133D01*
X015759Y013056D02*
X014799Y013056D01*
X014604Y012979D02*
X015759Y012979D01*
X015759Y014756D02*
X008203Y014756D01*
X008203Y014833D02*
X015759Y014833D01*
X015759Y014910D02*
X008203Y014910D01*
X008203Y014987D02*
X015759Y014987D01*
X015759Y015064D02*
X008203Y015064D01*
X008203Y015142D02*
X015759Y015142D01*
X015759Y015219D02*
X008203Y015219D01*
X008024Y015219D02*
X000289Y015219D01*
X000289Y015142D02*
X008024Y015142D01*
X008024Y015064D02*
X000289Y015064D01*
X000289Y014987D02*
X008024Y014987D01*
X008024Y014910D02*
X000289Y014910D01*
X000289Y014833D02*
X008024Y014833D01*
X008024Y014756D02*
X000289Y014756D01*
X003180Y011898D02*
X005888Y011898D01*
X005811Y011820D02*
X003103Y011820D01*
X003026Y011743D02*
X005734Y011743D01*
X005787Y011797D02*
X005787Y011797D01*
X005656Y011666D02*
X002949Y011666D01*
X002871Y011589D02*
X005579Y011589D01*
X005502Y011511D02*
X002794Y011511D01*
X002717Y011434D02*
X005425Y011434D01*
X005348Y011357D02*
X002640Y011357D01*
X002563Y011280D02*
X005270Y011280D01*
X005193Y011202D02*
X002485Y011202D01*
X002408Y011125D02*
X005116Y011125D01*
X005039Y011048D02*
X002331Y011048D01*
X002297Y010971D02*
X004961Y010971D01*
X004884Y010893D02*
X002297Y010893D01*
X002297Y010816D02*
X004807Y010816D01*
X004730Y010739D02*
X002297Y010739D01*
X002297Y010662D02*
X004652Y010662D01*
X004575Y010585D02*
X002297Y010585D01*
X002297Y010507D02*
X004498Y010507D01*
X004421Y010430D02*
X002297Y010430D01*
X002297Y010353D02*
X004343Y010353D01*
X004266Y010276D02*
X002318Y010276D01*
X002395Y010198D02*
X004189Y010198D01*
X004112Y010121D02*
X002473Y010121D01*
X002550Y010044D02*
X004034Y010044D01*
X003957Y009967D02*
X002627Y009967D01*
X002704Y009889D02*
X003880Y009889D01*
X003803Y009812D02*
X002781Y009812D01*
X002822Y009771D02*
X002822Y009771D01*
X002859Y009735D02*
X003725Y009735D01*
X003772Y009782D02*
X003772Y009782D01*
X003661Y009658D02*
X002927Y009658D01*
X002927Y009580D02*
X003661Y009580D01*
X003661Y009503D02*
X002927Y009503D01*
X002927Y009426D02*
X003661Y009426D01*
X003661Y009349D02*
X002927Y009349D01*
X002927Y009271D02*
X003661Y009271D01*
X003661Y009194D02*
X002927Y009194D01*
X002927Y009117D02*
X003661Y009117D01*
X003661Y009040D02*
X002927Y009040D01*
X002927Y008962D02*
X003661Y008962D01*
X003661Y008885D02*
X002927Y008885D01*
X002927Y008808D02*
X003661Y008808D01*
X003661Y008731D02*
X002927Y008731D01*
X002927Y008654D02*
X003661Y008654D01*
X003661Y008576D02*
X002927Y008576D01*
X002927Y008499D02*
X003661Y008499D01*
X003661Y008422D02*
X002927Y008422D01*
X002927Y008345D02*
X003661Y008345D01*
X003661Y008267D02*
X002927Y008267D01*
X002927Y008190D02*
X003661Y008190D01*
X003258Y011975D02*
X008024Y011975D01*
X008024Y012052D02*
X003335Y012052D01*
X003412Y012129D02*
X008024Y012129D01*
X008024Y012207D02*
X003489Y012207D01*
X003567Y012284D02*
X008024Y012284D01*
X008024Y012361D02*
X003644Y012361D01*
X003721Y012438D02*
X008024Y012438D01*
X008024Y012516D02*
X003798Y012516D01*
X003876Y012593D02*
X008024Y012593D01*
X008203Y012593D02*
X012172Y012593D01*
X012250Y012516D02*
X008203Y012516D01*
X008203Y012438D02*
X012327Y012438D01*
X012404Y012361D02*
X008203Y012361D01*
X008203Y012284D02*
X012481Y012284D01*
X012559Y012207D02*
X008203Y012207D01*
X008203Y012129D02*
X012636Y012129D01*
X012713Y012052D02*
X008203Y012052D01*
X008203Y011975D02*
X012790Y011975D01*
X013121Y007939D02*
X012387Y007939D01*
X012387Y005734D01*
X009394Y002742D01*
X009284Y002631D01*
X008496Y002631D01*
X008213Y002349D01*
X008213Y000992D01*
X008819Y000992D01*
X008819Y002505D01*
X008930Y002616D01*
X011898Y002616D01*
X013751Y004470D01*
X013751Y005109D01*
X013121Y005739D01*
X013121Y007939D01*
X013121Y007881D02*
X012387Y007881D01*
X012387Y007804D02*
X013121Y007804D01*
X013121Y007727D02*
X012387Y007727D01*
X012387Y007649D02*
X013121Y007649D01*
X013121Y007572D02*
X012387Y007572D01*
X012387Y007495D02*
X013121Y007495D01*
X013121Y007418D02*
X012387Y007418D01*
X012387Y007340D02*
X013121Y007340D01*
X013121Y007263D02*
X012387Y007263D01*
X012387Y007186D02*
X013121Y007186D01*
X013121Y007109D02*
X012387Y007109D01*
X012387Y007031D02*
X013121Y007031D01*
X013121Y006954D02*
X012387Y006954D01*
X012387Y006877D02*
X013121Y006877D01*
X013121Y006800D02*
X012387Y006800D01*
X012387Y006723D02*
X013121Y006723D01*
X013121Y006645D02*
X012387Y006645D01*
X012387Y006568D02*
X013121Y006568D01*
X013121Y006491D02*
X012387Y006491D01*
X012387Y006414D02*
X013121Y006414D01*
X013121Y006336D02*
X012387Y006336D01*
X012387Y006259D02*
X013121Y006259D01*
X013121Y006182D02*
X012387Y006182D01*
X012387Y006105D02*
X013121Y006105D01*
X013121Y006027D02*
X012387Y006027D01*
X012387Y005950D02*
X013121Y005950D01*
X013121Y005873D02*
X012387Y005873D01*
X012387Y005796D02*
X013121Y005796D01*
X013141Y005718D02*
X012371Y005718D01*
X012293Y005641D02*
X013219Y005641D01*
X013296Y005564D02*
X012216Y005564D01*
X012139Y005487D02*
X013373Y005487D01*
X013450Y005409D02*
X012062Y005409D01*
X011984Y005332D02*
X013528Y005332D01*
X013605Y005255D02*
X011907Y005255D01*
X011830Y005178D02*
X013682Y005178D01*
X013751Y005100D02*
X011753Y005100D01*
X011675Y005023D02*
X013751Y005023D01*
X013751Y004946D02*
X011598Y004946D01*
X011521Y004869D02*
X013751Y004869D01*
X013751Y004791D02*
X011444Y004791D01*
X011366Y004714D02*
X013751Y004714D01*
X013751Y004637D02*
X011289Y004637D01*
X011212Y004560D02*
X013751Y004560D01*
X013751Y004483D02*
X011135Y004483D01*
X011057Y004405D02*
X013687Y004405D01*
X013609Y004328D02*
X010980Y004328D01*
X010903Y004251D02*
X013532Y004251D01*
X013455Y004174D02*
X010826Y004174D01*
X010749Y004096D02*
X013378Y004096D01*
X013300Y004019D02*
X010671Y004019D01*
X010594Y003942D02*
X013223Y003942D01*
X013146Y003865D02*
X010517Y003865D01*
X010440Y003787D02*
X013069Y003787D01*
X012991Y003710D02*
X010362Y003710D01*
X010285Y003633D02*
X012914Y003633D01*
X012837Y003556D02*
X010208Y003556D01*
X010131Y003478D02*
X012760Y003478D01*
X012682Y003401D02*
X010053Y003401D01*
X009976Y003324D02*
X012605Y003324D01*
X012528Y003247D02*
X009899Y003247D01*
X009822Y003169D02*
X012451Y003169D01*
X012373Y003092D02*
X009744Y003092D01*
X009667Y003015D02*
X012296Y003015D01*
X012219Y002938D02*
X009590Y002938D01*
X009513Y002860D02*
X012142Y002860D01*
X012064Y002783D02*
X009435Y002783D01*
X009358Y002706D02*
X011987Y002706D01*
X011910Y002629D02*
X008494Y002629D01*
X008416Y002552D02*
X008865Y002552D01*
X008819Y002474D02*
X008339Y002474D01*
X008262Y002397D02*
X008819Y002397D01*
X008819Y002320D02*
X008213Y002320D01*
X008213Y002243D02*
X008819Y002243D01*
X008819Y002165D02*
X008213Y002165D01*
X008213Y002088D02*
X008819Y002088D01*
X008819Y002011D02*
X008213Y002011D01*
X008213Y001934D02*
X008819Y001934D01*
X008819Y001856D02*
X008213Y001856D01*
X008213Y001779D02*
X008819Y001779D01*
X008819Y001702D02*
X008213Y001702D01*
X008213Y001625D02*
X008819Y001625D01*
X008819Y001547D02*
X008213Y001547D01*
X008213Y001470D02*
X008819Y001470D01*
X008819Y001393D02*
X008213Y001393D01*
X008213Y001316D02*
X008819Y001316D01*
X008819Y001238D02*
X008213Y001238D01*
X008213Y001161D02*
X008819Y001161D01*
X008819Y001084D02*
X008213Y001084D01*
X008213Y001007D02*
X008819Y001007D01*
X012150Y001007D02*
X015759Y001007D01*
X015759Y000992D02*
X012150Y000992D01*
X012150Y002505D01*
X012095Y002561D01*
X013930Y004396D01*
X013930Y005183D01*
X013300Y005813D01*
X013300Y007939D01*
X015759Y007939D01*
X015759Y000992D01*
X015759Y001084D02*
X012150Y001084D01*
X012150Y001161D02*
X015759Y001161D01*
X015759Y001238D02*
X012150Y001238D01*
X012150Y001316D02*
X015759Y001316D01*
X015759Y001393D02*
X012150Y001393D01*
X012150Y001470D02*
X015759Y001470D01*
X015759Y001547D02*
X014565Y001547D01*
X014484Y001518D02*
X014785Y001627D01*
X015031Y001833D01*
X015191Y002111D01*
X015191Y002111D01*
X015247Y002427D01*
X015191Y002743D01*
X015031Y003021D01*
X014785Y003227D01*
X014484Y003336D01*
X014163Y003336D01*
X013862Y003227D01*
X013862Y003227D01*
X013616Y003021D01*
X013616Y003021D01*
X013616Y003021D01*
X013456Y002743D01*
X013400Y002427D01*
X013456Y002111D01*
X013616Y001833D01*
X013862Y001627D01*
X014163Y001518D01*
X014249Y001518D01*
X014484Y001518D01*
X014777Y001625D02*
X015759Y001625D01*
X015759Y001702D02*
X014874Y001702D01*
X014785Y001627D02*
X014785Y001627D01*
X014966Y001779D02*
X015759Y001779D01*
X015759Y001856D02*
X015044Y001856D01*
X015031Y001833D02*
X015031Y001833D01*
X015031Y001833D01*
X015088Y001934D02*
X015759Y001934D01*
X015759Y002011D02*
X015133Y002011D01*
X015178Y002088D02*
X015759Y002088D01*
X015759Y002165D02*
X015200Y002165D01*
X015214Y002243D02*
X015759Y002243D01*
X015759Y002320D02*
X015228Y002320D01*
X015241Y002397D02*
X015759Y002397D01*
X015759Y002474D02*
X015238Y002474D01*
X015247Y002427D02*
X015247Y002427D01*
X015225Y002552D02*
X015759Y002552D01*
X015759Y002629D02*
X015211Y002629D01*
X015197Y002706D02*
X015759Y002706D01*
X015759Y002783D02*
X015168Y002783D01*
X015191Y002743D02*
X015191Y002743D01*
X015123Y002860D02*
X015759Y002860D01*
X015759Y002938D02*
X015078Y002938D01*
X015034Y003015D02*
X015759Y003015D01*
X015759Y003092D02*
X014945Y003092D01*
X015031Y003021D02*
X015031Y003021D01*
X014853Y003169D02*
X015759Y003169D01*
X015759Y003247D02*
X014730Y003247D01*
X014785Y003227D02*
X014785Y003227D01*
X014518Y003324D02*
X015759Y003324D01*
X015759Y003401D02*
X012935Y003401D01*
X012858Y003324D02*
X014129Y003324D01*
X013916Y003247D02*
X012781Y003247D01*
X012703Y003169D02*
X013793Y003169D01*
X013701Y003092D02*
X012626Y003092D01*
X012549Y003015D02*
X013613Y003015D01*
X013568Y002938D02*
X012472Y002938D01*
X012394Y002860D02*
X013523Y002860D01*
X013479Y002783D02*
X012317Y002783D01*
X012240Y002706D02*
X013449Y002706D01*
X013456Y002743D02*
X013456Y002743D01*
X013435Y002629D02*
X012163Y002629D01*
X012104Y002552D02*
X013422Y002552D01*
X013408Y002474D02*
X012150Y002474D01*
X012150Y002397D02*
X013405Y002397D01*
X013400Y002427D02*
X013400Y002427D01*
X013419Y002320D02*
X012150Y002320D01*
X012150Y002243D02*
X013432Y002243D01*
X013446Y002165D02*
X012150Y002165D01*
X012150Y002088D02*
X013469Y002088D01*
X013456Y002111D02*
X013456Y002111D01*
X013513Y002011D02*
X012150Y002011D01*
X012150Y001934D02*
X013558Y001934D01*
X013603Y001856D02*
X012150Y001856D01*
X012150Y001779D02*
X013681Y001779D01*
X013616Y001833D02*
X013616Y001833D01*
X013773Y001702D02*
X012150Y001702D01*
X012150Y001625D02*
X013869Y001625D01*
X013862Y001627D02*
X013862Y001627D01*
X014081Y001547D02*
X012150Y001547D01*
X013012Y003478D02*
X015759Y003478D01*
X015759Y003556D02*
X013090Y003556D01*
X013167Y003633D02*
X015759Y003633D01*
X015759Y003710D02*
X013244Y003710D01*
X013321Y003787D02*
X015759Y003787D01*
X015759Y003865D02*
X013399Y003865D01*
X013476Y003942D02*
X015759Y003942D01*
X015759Y004019D02*
X013553Y004019D01*
X013630Y004096D02*
X015759Y004096D01*
X015759Y004174D02*
X013708Y004174D01*
X013785Y004251D02*
X015759Y004251D01*
X015759Y004328D02*
X013862Y004328D01*
X013930Y004405D02*
X015759Y004405D01*
X015759Y004483D02*
X013930Y004483D01*
X013930Y004560D02*
X015759Y004560D01*
X015759Y004637D02*
X013930Y004637D01*
X013930Y004714D02*
X015759Y004714D01*
X015759Y004791D02*
X013930Y004791D01*
X013930Y004869D02*
X015759Y004869D01*
X015759Y004946D02*
X013930Y004946D01*
X013930Y005023D02*
X015759Y005023D01*
X015759Y005100D02*
X013930Y005100D01*
X013930Y005178D02*
X015759Y005178D01*
X015759Y005255D02*
X013858Y005255D01*
X013780Y005332D02*
X015759Y005332D01*
X015759Y005409D02*
X013703Y005409D01*
X013626Y005487D02*
X015759Y005487D01*
X015759Y005564D02*
X013549Y005564D01*
X013471Y005641D02*
X015759Y005641D01*
X015759Y005718D02*
X013394Y005718D01*
X013317Y005796D02*
X015759Y005796D01*
X015759Y005873D02*
X013300Y005873D01*
X013300Y005950D02*
X015759Y005950D01*
X015759Y006027D02*
X013300Y006027D01*
X013300Y006105D02*
X015759Y006105D01*
X015759Y006182D02*
X013300Y006182D01*
X013300Y006259D02*
X015759Y006259D01*
X015759Y006336D02*
X013300Y006336D01*
X013300Y006414D02*
X015759Y006414D01*
X015759Y006491D02*
X013300Y006491D01*
X013300Y006568D02*
X015759Y006568D01*
X015759Y006645D02*
X013300Y006645D01*
X013300Y006723D02*
X015759Y006723D01*
X015759Y006800D02*
X013300Y006800D01*
X013300Y006877D02*
X015759Y006877D01*
X015759Y006954D02*
X013300Y006954D01*
X013300Y007031D02*
X015759Y007031D01*
X015759Y007109D02*
X013300Y007109D01*
X013300Y007186D02*
X015759Y007186D01*
X015759Y007263D02*
X013300Y007263D01*
X013300Y007340D02*
X015759Y007340D01*
X015759Y007418D02*
X013300Y007418D01*
X013300Y007495D02*
X015759Y007495D01*
X015759Y007572D02*
X013300Y007572D01*
X013300Y007649D02*
X015759Y007649D01*
X015759Y007727D02*
X013300Y007727D01*
X013300Y007804D02*
X015759Y007804D01*
X015759Y007881D02*
X013300Y007881D01*
X005824Y012642D02*
X005719Y012747D01*
M02*
