G75*
G70*
%OFA0B0*%
%FSLAX24Y24*%
%IPPOS*%
%LPD*%
%AMOC8*
5,1,8,0,0,1.08239X$1,22.5*
%
%ADD10C,0.0000*%
%ADD11R,0.0787X0.1181*%
%ADD12R,0.0630X0.1181*%
%ADD13R,0.1181X0.0787*%
%ADD14R,0.1181X0.0630*%
%ADD15R,0.0630X0.0710*%
%ADD16C,0.0690*%
%ADD17C,0.0079*%
%ADD18C,0.0300*%
D10*
X000150Y000852D02*
X000150Y015419D01*
X015898Y015419D01*
X015898Y000852D01*
X000150Y000852D01*
X001075Y002427D02*
X001077Y002477D01*
X001083Y002527D01*
X001093Y002577D01*
X001106Y002625D01*
X001123Y002673D01*
X001144Y002719D01*
X001168Y002763D01*
X001196Y002805D01*
X001227Y002845D01*
X001261Y002882D01*
X001298Y002917D01*
X001337Y002948D01*
X001378Y002977D01*
X001422Y003002D01*
X001468Y003024D01*
X001515Y003042D01*
X001563Y003056D01*
X001612Y003067D01*
X001662Y003074D01*
X001712Y003077D01*
X001763Y003076D01*
X001813Y003071D01*
X001863Y003062D01*
X001911Y003050D01*
X001959Y003033D01*
X002005Y003013D01*
X002050Y002990D01*
X002093Y002963D01*
X002133Y002933D01*
X002171Y002900D01*
X002206Y002864D01*
X002239Y002825D01*
X002268Y002784D01*
X002294Y002741D01*
X002317Y002696D01*
X002336Y002649D01*
X002351Y002601D01*
X002363Y002552D01*
X002371Y002502D01*
X002375Y002452D01*
X002375Y002402D01*
X002371Y002352D01*
X002363Y002302D01*
X002351Y002253D01*
X002336Y002205D01*
X002317Y002158D01*
X002294Y002113D01*
X002268Y002070D01*
X002239Y002029D01*
X002206Y001990D01*
X002171Y001954D01*
X002133Y001921D01*
X002093Y001891D01*
X002050Y001864D01*
X002005Y001841D01*
X001959Y001821D01*
X001911Y001804D01*
X001863Y001792D01*
X001813Y001783D01*
X001763Y001778D01*
X001712Y001777D01*
X001662Y001780D01*
X001612Y001787D01*
X001563Y001798D01*
X001515Y001812D01*
X001468Y001830D01*
X001422Y001852D01*
X001378Y001877D01*
X001337Y001906D01*
X001298Y001937D01*
X001261Y001972D01*
X001227Y002009D01*
X001196Y002049D01*
X001168Y002091D01*
X001144Y002135D01*
X001123Y002181D01*
X001106Y002229D01*
X001093Y002277D01*
X001083Y002327D01*
X001077Y002377D01*
X001075Y002427D01*
X001075Y013844D02*
X001077Y013894D01*
X001083Y013944D01*
X001093Y013994D01*
X001106Y014042D01*
X001123Y014090D01*
X001144Y014136D01*
X001168Y014180D01*
X001196Y014222D01*
X001227Y014262D01*
X001261Y014299D01*
X001298Y014334D01*
X001337Y014365D01*
X001378Y014394D01*
X001422Y014419D01*
X001468Y014441D01*
X001515Y014459D01*
X001563Y014473D01*
X001612Y014484D01*
X001662Y014491D01*
X001712Y014494D01*
X001763Y014493D01*
X001813Y014488D01*
X001863Y014479D01*
X001911Y014467D01*
X001959Y014450D01*
X002005Y014430D01*
X002050Y014407D01*
X002093Y014380D01*
X002133Y014350D01*
X002171Y014317D01*
X002206Y014281D01*
X002239Y014242D01*
X002268Y014201D01*
X002294Y014158D01*
X002317Y014113D01*
X002336Y014066D01*
X002351Y014018D01*
X002363Y013969D01*
X002371Y013919D01*
X002375Y013869D01*
X002375Y013819D01*
X002371Y013769D01*
X002363Y013719D01*
X002351Y013670D01*
X002336Y013622D01*
X002317Y013575D01*
X002294Y013530D01*
X002268Y013487D01*
X002239Y013446D01*
X002206Y013407D01*
X002171Y013371D01*
X002133Y013338D01*
X002093Y013308D01*
X002050Y013281D01*
X002005Y013258D01*
X001959Y013238D01*
X001911Y013221D01*
X001863Y013209D01*
X001813Y013200D01*
X001763Y013195D01*
X001712Y013194D01*
X001662Y013197D01*
X001612Y013204D01*
X001563Y013215D01*
X001515Y013229D01*
X001468Y013247D01*
X001422Y013269D01*
X001378Y013294D01*
X001337Y013323D01*
X001298Y013354D01*
X001261Y013389D01*
X001227Y013426D01*
X001196Y013466D01*
X001168Y013508D01*
X001144Y013552D01*
X001123Y013598D01*
X001106Y013646D01*
X001093Y013694D01*
X001083Y013744D01*
X001077Y013794D01*
X001075Y013844D01*
X013673Y013844D02*
X013675Y013894D01*
X013681Y013944D01*
X013691Y013994D01*
X013704Y014042D01*
X013721Y014090D01*
X013742Y014136D01*
X013766Y014180D01*
X013794Y014222D01*
X013825Y014262D01*
X013859Y014299D01*
X013896Y014334D01*
X013935Y014365D01*
X013976Y014394D01*
X014020Y014419D01*
X014066Y014441D01*
X014113Y014459D01*
X014161Y014473D01*
X014210Y014484D01*
X014260Y014491D01*
X014310Y014494D01*
X014361Y014493D01*
X014411Y014488D01*
X014461Y014479D01*
X014509Y014467D01*
X014557Y014450D01*
X014603Y014430D01*
X014648Y014407D01*
X014691Y014380D01*
X014731Y014350D01*
X014769Y014317D01*
X014804Y014281D01*
X014837Y014242D01*
X014866Y014201D01*
X014892Y014158D01*
X014915Y014113D01*
X014934Y014066D01*
X014949Y014018D01*
X014961Y013969D01*
X014969Y013919D01*
X014973Y013869D01*
X014973Y013819D01*
X014969Y013769D01*
X014961Y013719D01*
X014949Y013670D01*
X014934Y013622D01*
X014915Y013575D01*
X014892Y013530D01*
X014866Y013487D01*
X014837Y013446D01*
X014804Y013407D01*
X014769Y013371D01*
X014731Y013338D01*
X014691Y013308D01*
X014648Y013281D01*
X014603Y013258D01*
X014557Y013238D01*
X014509Y013221D01*
X014461Y013209D01*
X014411Y013200D01*
X014361Y013195D01*
X014310Y013194D01*
X014260Y013197D01*
X014210Y013204D01*
X014161Y013215D01*
X014113Y013229D01*
X014066Y013247D01*
X014020Y013269D01*
X013976Y013294D01*
X013935Y013323D01*
X013896Y013354D01*
X013859Y013389D01*
X013825Y013426D01*
X013794Y013466D01*
X013766Y013508D01*
X013742Y013552D01*
X013721Y013598D01*
X013704Y013646D01*
X013691Y013694D01*
X013681Y013744D01*
X013675Y013794D01*
X013673Y013844D01*
X013673Y002427D02*
X013675Y002477D01*
X013681Y002527D01*
X013691Y002577D01*
X013704Y002625D01*
X013721Y002673D01*
X013742Y002719D01*
X013766Y002763D01*
X013794Y002805D01*
X013825Y002845D01*
X013859Y002882D01*
X013896Y002917D01*
X013935Y002948D01*
X013976Y002977D01*
X014020Y003002D01*
X014066Y003024D01*
X014113Y003042D01*
X014161Y003056D01*
X014210Y003067D01*
X014260Y003074D01*
X014310Y003077D01*
X014361Y003076D01*
X014411Y003071D01*
X014461Y003062D01*
X014509Y003050D01*
X014557Y003033D01*
X014603Y003013D01*
X014648Y002990D01*
X014691Y002963D01*
X014731Y002933D01*
X014769Y002900D01*
X014804Y002864D01*
X014837Y002825D01*
X014866Y002784D01*
X014892Y002741D01*
X014915Y002696D01*
X014934Y002649D01*
X014949Y002601D01*
X014961Y002552D01*
X014969Y002502D01*
X014973Y002452D01*
X014973Y002402D01*
X014969Y002352D01*
X014961Y002302D01*
X014949Y002253D01*
X014934Y002205D01*
X014915Y002158D01*
X014892Y002113D01*
X014866Y002070D01*
X014837Y002029D01*
X014804Y001990D01*
X014769Y001954D01*
X014731Y001921D01*
X014691Y001891D01*
X014648Y001864D01*
X014603Y001841D01*
X014557Y001821D01*
X014509Y001804D01*
X014461Y001792D01*
X014411Y001783D01*
X014361Y001778D01*
X014310Y001777D01*
X014260Y001780D01*
X014210Y001787D01*
X014161Y001798D01*
X014113Y001812D01*
X014066Y001830D01*
X014020Y001852D01*
X013976Y001877D01*
X013935Y001906D01*
X013896Y001937D01*
X013859Y001972D01*
X013825Y002009D01*
X013794Y002049D01*
X013766Y002091D01*
X013742Y002135D01*
X013721Y002181D01*
X013704Y002229D01*
X013691Y002277D01*
X013681Y002327D01*
X013675Y002377D01*
X013673Y002427D01*
D11*
X013654Y006876D03*
X011843Y006876D03*
X011843Y009002D03*
X013654Y009002D03*
X004205Y009002D03*
X002394Y009002D03*
X002394Y006876D03*
X004205Y006876D03*
D12*
X003300Y006876D03*
X003300Y009002D03*
X012748Y009002D03*
X012748Y006876D03*
D13*
X009087Y011364D03*
X009087Y013175D03*
X006961Y013175D03*
X006961Y011364D03*
D14*
X006961Y012270D03*
X009087Y012270D03*
D15*
X011401Y002033D03*
X012521Y002033D03*
D16*
X009524Y002033D03*
X008524Y002033D03*
X007524Y002033D03*
X006524Y002033D03*
D17*
X007040Y002011D02*
X002535Y002011D01*
X002579Y002088D02*
X007040Y002088D01*
X007040Y002130D02*
X007040Y001937D01*
X007040Y001937D01*
X007040Y000992D01*
X000289Y000992D01*
X000289Y007939D01*
X007040Y007939D01*
X007040Y002130D01*
X007040Y002130D01*
X007040Y002165D02*
X002602Y002165D01*
X002593Y002111D02*
X002648Y002427D01*
X002593Y002743D01*
X002432Y003021D01*
X002187Y003227D01*
X002187Y003227D01*
X001885Y003336D01*
X001564Y003336D01*
X001263Y003227D01*
X001017Y003021D01*
X000857Y002743D01*
X000857Y002743D01*
X000801Y002427D01*
X000801Y002427D01*
X000857Y002111D01*
X001017Y001833D01*
X001263Y001627D01*
X001564Y001518D01*
X001651Y001518D01*
X001885Y001518D01*
X002187Y001627D01*
X002432Y001833D01*
X002432Y001833D01*
X002432Y001833D01*
X002593Y002111D01*
X002593Y002111D01*
X002616Y002243D02*
X007040Y002243D01*
X007040Y002320D02*
X002629Y002320D01*
X002643Y002397D02*
X007040Y002397D01*
X007040Y002474D02*
X002640Y002474D01*
X002648Y002427D02*
X002648Y002427D01*
X002626Y002552D02*
X007040Y002552D01*
X007040Y002629D02*
X002613Y002629D01*
X002599Y002706D02*
X007040Y002706D01*
X007040Y002783D02*
X002569Y002783D01*
X002593Y002743D02*
X002593Y002743D01*
X002525Y002860D02*
X007040Y002860D01*
X007040Y002938D02*
X002480Y002938D01*
X002435Y003015D02*
X007040Y003015D01*
X007040Y003092D02*
X002347Y003092D01*
X002432Y003021D02*
X002432Y003021D01*
X002255Y003169D02*
X007040Y003169D01*
X007040Y003247D02*
X002132Y003247D01*
X001919Y003324D02*
X007040Y003324D01*
X007040Y003401D02*
X000289Y003401D01*
X000289Y003324D02*
X001530Y003324D01*
X001318Y003247D02*
X000289Y003247D01*
X000289Y003169D02*
X001195Y003169D01*
X001263Y003227D02*
X001263Y003227D01*
X001103Y003092D02*
X000289Y003092D01*
X000289Y003015D02*
X001014Y003015D01*
X001017Y003021D02*
X001017Y003021D01*
X001017Y003021D01*
X000970Y002938D02*
X000289Y002938D01*
X000289Y002860D02*
X000925Y002860D01*
X000880Y002783D02*
X000289Y002783D01*
X000289Y002706D02*
X000851Y002706D01*
X000837Y002629D02*
X000289Y002629D01*
X000289Y002552D02*
X000823Y002552D01*
X000810Y002474D02*
X000289Y002474D01*
X000289Y002397D02*
X000807Y002397D01*
X000820Y002320D02*
X000289Y002320D01*
X000289Y002243D02*
X000834Y002243D01*
X000848Y002165D02*
X000289Y002165D01*
X000289Y002088D02*
X000870Y002088D01*
X000915Y002011D02*
X000289Y002011D01*
X000289Y001934D02*
X000960Y001934D01*
X001004Y001856D02*
X000289Y001856D01*
X000289Y001779D02*
X001082Y001779D01*
X001174Y001702D02*
X000289Y001702D01*
X000289Y001625D02*
X001271Y001625D01*
X001263Y001627D02*
X001263Y001627D01*
X001483Y001547D02*
X000289Y001547D01*
X000289Y001470D02*
X007040Y001470D01*
X007040Y001393D02*
X000289Y001393D01*
X000289Y001316D02*
X007040Y001316D01*
X007040Y001238D02*
X000289Y001238D01*
X000289Y001161D02*
X007040Y001161D01*
X007040Y001084D02*
X000289Y001084D01*
X000289Y001007D02*
X007040Y001007D01*
X007219Y001007D02*
X008024Y001007D01*
X008024Y000992D02*
X007219Y000992D01*
X007219Y007939D01*
X012197Y007939D01*
X012197Y006325D01*
X011489Y006325D01*
X008024Y002860D01*
X008024Y000992D01*
X008024Y001084D02*
X007219Y001084D01*
X007219Y001161D02*
X008024Y001161D01*
X008024Y001238D02*
X007219Y001238D01*
X007219Y001316D02*
X008024Y001316D01*
X008024Y001393D02*
X007219Y001393D01*
X007219Y001470D02*
X008024Y001470D01*
X008024Y001547D02*
X007219Y001547D01*
X007219Y001625D02*
X008024Y001625D01*
X008024Y001702D02*
X007219Y001702D01*
X007219Y001779D02*
X008024Y001779D01*
X008024Y001856D02*
X007219Y001856D01*
X007219Y001934D02*
X008024Y001934D01*
X008024Y002011D02*
X007219Y002011D01*
X007219Y002088D02*
X008024Y002088D01*
X008024Y002165D02*
X007219Y002165D01*
X007219Y002243D02*
X008024Y002243D01*
X008024Y002320D02*
X007219Y002320D01*
X007219Y002397D02*
X008024Y002397D01*
X008024Y002474D02*
X007219Y002474D01*
X007219Y002552D02*
X008024Y002552D01*
X008024Y002629D02*
X007219Y002629D01*
X007219Y002706D02*
X008024Y002706D01*
X008024Y002783D02*
X007219Y002783D01*
X007219Y002860D02*
X008024Y002860D01*
X008102Y002938D02*
X007219Y002938D01*
X007219Y003015D02*
X008179Y003015D01*
X008256Y003092D02*
X007219Y003092D01*
X007219Y003169D02*
X008333Y003169D01*
X008411Y003247D02*
X007219Y003247D01*
X007219Y003324D02*
X008488Y003324D01*
X008565Y003401D02*
X007219Y003401D01*
X007219Y003478D02*
X008642Y003478D01*
X008720Y003556D02*
X007219Y003556D01*
X007219Y003633D02*
X008797Y003633D01*
X008874Y003710D02*
X007219Y003710D01*
X007219Y003787D02*
X008951Y003787D01*
X009029Y003865D02*
X007219Y003865D01*
X007219Y003942D02*
X009106Y003942D01*
X009183Y004019D02*
X007219Y004019D01*
X007219Y004096D02*
X009260Y004096D01*
X009337Y004174D02*
X007219Y004174D01*
X007219Y004251D02*
X009415Y004251D01*
X009492Y004328D02*
X007219Y004328D01*
X007219Y004405D02*
X009569Y004405D01*
X009646Y004483D02*
X007219Y004483D01*
X007219Y004560D02*
X009724Y004560D01*
X009801Y004637D02*
X007219Y004637D01*
X007219Y004714D02*
X009878Y004714D01*
X009955Y004791D02*
X007219Y004791D01*
X007219Y004869D02*
X010033Y004869D01*
X010110Y004946D02*
X007219Y004946D01*
X007219Y005023D02*
X010187Y005023D01*
X010264Y005100D02*
X007219Y005100D01*
X007219Y005178D02*
X010342Y005178D01*
X010419Y005255D02*
X007219Y005255D01*
X007219Y005332D02*
X010496Y005332D01*
X010573Y005409D02*
X007219Y005409D01*
X007219Y005487D02*
X010651Y005487D01*
X010728Y005564D02*
X007219Y005564D01*
X007219Y005641D02*
X010805Y005641D01*
X010882Y005718D02*
X007219Y005718D01*
X007219Y005796D02*
X010960Y005796D01*
X011037Y005873D02*
X007219Y005873D01*
X007219Y005950D02*
X011114Y005950D01*
X011191Y006027D02*
X007219Y006027D01*
X007219Y006105D02*
X011268Y006105D01*
X011346Y006182D02*
X007219Y006182D01*
X007219Y006259D02*
X011423Y006259D01*
X011563Y006146D02*
X012294Y006146D01*
X012376Y006228D01*
X012376Y007939D01*
X013121Y007939D01*
X013121Y003840D01*
X011887Y002606D01*
X008934Y002606D01*
X008830Y002501D01*
X008830Y000992D01*
X008203Y000992D01*
X008203Y002786D01*
X011563Y006146D01*
X011521Y006105D02*
X013121Y006105D01*
X013121Y006182D02*
X012330Y006182D01*
X012376Y006259D02*
X013121Y006259D01*
X013121Y006336D02*
X012376Y006336D01*
X012376Y006414D02*
X013121Y006414D01*
X013121Y006491D02*
X012376Y006491D01*
X012376Y006568D02*
X013121Y006568D01*
X013121Y006645D02*
X012376Y006645D01*
X012376Y006723D02*
X013121Y006723D01*
X013121Y006800D02*
X012376Y006800D01*
X012376Y006877D02*
X013121Y006877D01*
X013121Y006954D02*
X012376Y006954D01*
X012376Y007031D02*
X013121Y007031D01*
X013121Y007109D02*
X012376Y007109D01*
X012376Y007186D02*
X013121Y007186D01*
X013121Y007263D02*
X012376Y007263D01*
X012376Y007340D02*
X013121Y007340D01*
X013121Y007418D02*
X012376Y007418D01*
X012376Y007495D02*
X013121Y007495D01*
X013121Y007572D02*
X012376Y007572D01*
X012376Y007649D02*
X013121Y007649D01*
X013121Y007727D02*
X012376Y007727D01*
X012376Y007804D02*
X013121Y007804D01*
X013121Y007881D02*
X012376Y007881D01*
X012197Y007881D02*
X007219Y007881D01*
X007219Y007804D02*
X012197Y007804D01*
X012197Y007727D02*
X007219Y007727D01*
X007219Y007649D02*
X012197Y007649D01*
X012197Y007572D02*
X007219Y007572D01*
X007219Y007495D02*
X012197Y007495D01*
X012197Y007418D02*
X007219Y007418D01*
X007219Y007340D02*
X012197Y007340D01*
X012197Y007263D02*
X007219Y007263D01*
X007219Y007186D02*
X012197Y007186D01*
X012197Y007109D02*
X007219Y007109D01*
X007219Y007031D02*
X012197Y007031D01*
X012197Y006954D02*
X007219Y006954D01*
X007219Y006877D02*
X012197Y006877D01*
X012197Y006800D02*
X007219Y006800D01*
X007219Y006723D02*
X012197Y006723D01*
X012197Y006645D02*
X007219Y006645D01*
X007219Y006568D02*
X012197Y006568D01*
X012197Y006491D02*
X007219Y006491D01*
X007219Y006414D02*
X012197Y006414D01*
X012197Y006336D02*
X007219Y006336D01*
X007040Y006336D02*
X000289Y006336D01*
X000289Y006259D02*
X007040Y006259D01*
X007040Y006182D02*
X000289Y006182D01*
X000289Y006105D02*
X007040Y006105D01*
X007040Y006027D02*
X000289Y006027D01*
X000289Y005950D02*
X007040Y005950D01*
X007040Y005873D02*
X000289Y005873D01*
X000289Y005796D02*
X007040Y005796D01*
X007040Y005718D02*
X000289Y005718D01*
X000289Y005641D02*
X007040Y005641D01*
X007040Y005564D02*
X000289Y005564D01*
X000289Y005487D02*
X007040Y005487D01*
X007040Y005409D02*
X000289Y005409D01*
X000289Y005332D02*
X007040Y005332D01*
X007040Y005255D02*
X000289Y005255D01*
X000289Y005178D02*
X007040Y005178D01*
X007040Y005100D02*
X000289Y005100D01*
X000289Y005023D02*
X007040Y005023D01*
X007040Y004946D02*
X000289Y004946D01*
X000289Y004869D02*
X007040Y004869D01*
X007040Y004791D02*
X000289Y004791D01*
X000289Y004714D02*
X007040Y004714D01*
X007040Y004637D02*
X000289Y004637D01*
X000289Y004560D02*
X007040Y004560D01*
X007040Y004483D02*
X000289Y004483D01*
X000289Y004405D02*
X007040Y004405D01*
X007040Y004328D02*
X000289Y004328D01*
X000289Y004251D02*
X007040Y004251D01*
X007040Y004174D02*
X000289Y004174D01*
X000289Y004096D02*
X007040Y004096D01*
X007040Y004019D02*
X000289Y004019D01*
X000289Y003942D02*
X007040Y003942D01*
X007040Y003865D02*
X000289Y003865D01*
X000289Y003787D02*
X007040Y003787D01*
X007040Y003710D02*
X000289Y003710D01*
X000289Y003633D02*
X007040Y003633D01*
X007040Y003556D02*
X000289Y003556D01*
X000289Y003478D02*
X007040Y003478D01*
X008203Y002783D02*
X012064Y002783D01*
X011987Y002706D02*
X008203Y002706D01*
X008203Y002629D02*
X011910Y002629D01*
X012087Y002553D02*
X013300Y003766D01*
X013300Y007939D01*
X015759Y007939D01*
X015759Y000992D01*
X012140Y000992D01*
X012140Y002501D01*
X012087Y002553D01*
X012089Y002552D02*
X013422Y002552D01*
X013435Y002629D02*
X012163Y002629D01*
X012240Y002706D02*
X013449Y002706D01*
X013456Y002743D02*
X013400Y002427D01*
X013456Y002111D01*
X013616Y001833D01*
X013862Y001627D01*
X014163Y001518D01*
X014398Y001518D01*
X014484Y001518D01*
X014785Y001627D01*
X015031Y001833D01*
X015191Y002111D01*
X015191Y002111D01*
X015247Y002427D01*
X015191Y002743D01*
X015031Y003021D01*
X014785Y003227D01*
X014484Y003336D01*
X014163Y003336D01*
X013862Y003227D01*
X013862Y003227D01*
X013616Y003021D01*
X013616Y003021D01*
X013616Y003021D01*
X013456Y002743D01*
X013456Y002743D01*
X013479Y002783D02*
X012317Y002783D01*
X012394Y002860D02*
X013523Y002860D01*
X013568Y002938D02*
X012472Y002938D01*
X012549Y003015D02*
X013613Y003015D01*
X013701Y003092D02*
X012626Y003092D01*
X012703Y003169D02*
X013793Y003169D01*
X013916Y003247D02*
X012781Y003247D01*
X012858Y003324D02*
X014129Y003324D01*
X014518Y003324D02*
X015759Y003324D01*
X015759Y003401D02*
X012935Y003401D01*
X013012Y003478D02*
X015759Y003478D01*
X015759Y003556D02*
X013090Y003556D01*
X013167Y003633D02*
X015759Y003633D01*
X015759Y003710D02*
X013244Y003710D01*
X013300Y003787D02*
X015759Y003787D01*
X015759Y003865D02*
X013300Y003865D01*
X013300Y003942D02*
X015759Y003942D01*
X015759Y004019D02*
X013300Y004019D01*
X013300Y004096D02*
X015759Y004096D01*
X015759Y004174D02*
X013300Y004174D01*
X013300Y004251D02*
X015759Y004251D01*
X015759Y004328D02*
X013300Y004328D01*
X013300Y004405D02*
X015759Y004405D01*
X015759Y004483D02*
X013300Y004483D01*
X013300Y004560D02*
X015759Y004560D01*
X015759Y004637D02*
X013300Y004637D01*
X013300Y004714D02*
X015759Y004714D01*
X015759Y004791D02*
X013300Y004791D01*
X013300Y004869D02*
X015759Y004869D01*
X015759Y004946D02*
X013300Y004946D01*
X013300Y005023D02*
X015759Y005023D01*
X015759Y005100D02*
X013300Y005100D01*
X013300Y005178D02*
X015759Y005178D01*
X015759Y005255D02*
X013300Y005255D01*
X013300Y005332D02*
X015759Y005332D01*
X015759Y005409D02*
X013300Y005409D01*
X013300Y005487D02*
X015759Y005487D01*
X015759Y005564D02*
X013300Y005564D01*
X013300Y005641D02*
X015759Y005641D01*
X015759Y005718D02*
X013300Y005718D01*
X013300Y005796D02*
X015759Y005796D01*
X015759Y005873D02*
X013300Y005873D01*
X013300Y005950D02*
X015759Y005950D01*
X015759Y006027D02*
X013300Y006027D01*
X013300Y006105D02*
X015759Y006105D01*
X015759Y006182D02*
X013300Y006182D01*
X013300Y006259D02*
X015759Y006259D01*
X015759Y006336D02*
X013300Y006336D01*
X013300Y006414D02*
X015759Y006414D01*
X015759Y006491D02*
X013300Y006491D01*
X013300Y006568D02*
X015759Y006568D01*
X015759Y006645D02*
X013300Y006645D01*
X013300Y006723D02*
X015759Y006723D01*
X015759Y006800D02*
X013300Y006800D01*
X013300Y006877D02*
X015759Y006877D01*
X015759Y006954D02*
X013300Y006954D01*
X013300Y007031D02*
X015759Y007031D01*
X015759Y007109D02*
X013300Y007109D01*
X013300Y007186D02*
X015759Y007186D01*
X015759Y007263D02*
X013300Y007263D01*
X013300Y007340D02*
X015759Y007340D01*
X015759Y007418D02*
X013300Y007418D01*
X013300Y007495D02*
X015759Y007495D01*
X015759Y007572D02*
X013300Y007572D01*
X013300Y007649D02*
X015759Y007649D01*
X015759Y007727D02*
X013300Y007727D01*
X013300Y007804D02*
X015759Y007804D01*
X015759Y007881D02*
X013300Y007881D01*
X013300Y008118D02*
X013300Y010537D01*
X011016Y012821D01*
X008203Y012821D01*
X008203Y015280D01*
X015759Y015280D01*
X015759Y008118D01*
X013300Y008118D01*
X013300Y008190D02*
X015759Y008190D01*
X015759Y008267D02*
X013300Y008267D01*
X013300Y008345D02*
X015759Y008345D01*
X015759Y008422D02*
X013300Y008422D01*
X013300Y008499D02*
X015759Y008499D01*
X015759Y008576D02*
X013300Y008576D01*
X013300Y008654D02*
X015759Y008654D01*
X015759Y008731D02*
X013300Y008731D01*
X013300Y008808D02*
X015759Y008808D01*
X015759Y008885D02*
X013300Y008885D01*
X013300Y008962D02*
X015759Y008962D01*
X015759Y009040D02*
X013300Y009040D01*
X013300Y009117D02*
X015759Y009117D01*
X015759Y009194D02*
X013300Y009194D01*
X013300Y009271D02*
X015759Y009271D01*
X015759Y009349D02*
X013300Y009349D01*
X013300Y009426D02*
X015759Y009426D01*
X015759Y009503D02*
X013300Y009503D01*
X013300Y009580D02*
X015759Y009580D01*
X015759Y009658D02*
X013300Y009658D01*
X013300Y009735D02*
X015759Y009735D01*
X015759Y009812D02*
X013300Y009812D01*
X013300Y009889D02*
X015759Y009889D01*
X015759Y009967D02*
X013300Y009967D01*
X013300Y010044D02*
X015759Y010044D01*
X015759Y010121D02*
X013300Y010121D01*
X013300Y010198D02*
X015759Y010198D01*
X015759Y010276D02*
X013300Y010276D01*
X013300Y010353D02*
X015759Y010353D01*
X015759Y010430D02*
X013300Y010430D01*
X013300Y010507D02*
X015759Y010507D01*
X015759Y010585D02*
X013252Y010585D01*
X013175Y010662D02*
X015759Y010662D01*
X015759Y010739D02*
X013098Y010739D01*
X013021Y010816D02*
X015759Y010816D01*
X015759Y010893D02*
X012943Y010893D01*
X012866Y010971D02*
X015759Y010971D01*
X015759Y011048D02*
X012789Y011048D01*
X012712Y011125D02*
X015759Y011125D01*
X015759Y011202D02*
X012634Y011202D01*
X012557Y011280D02*
X015759Y011280D01*
X015759Y011357D02*
X012480Y011357D01*
X012403Y011434D02*
X015759Y011434D01*
X015759Y011511D02*
X012325Y011511D01*
X012248Y011589D02*
X015759Y011589D01*
X015759Y011666D02*
X012171Y011666D01*
X012094Y011743D02*
X015759Y011743D01*
X015759Y011820D02*
X012017Y011820D01*
X011939Y011898D02*
X015759Y011898D01*
X015759Y011975D02*
X011862Y011975D01*
X011785Y012052D02*
X015759Y012052D01*
X015759Y012129D02*
X011708Y012129D01*
X011630Y012207D02*
X015759Y012207D01*
X015759Y012284D02*
X011553Y012284D01*
X011476Y012361D02*
X015759Y012361D01*
X015759Y012438D02*
X011399Y012438D01*
X011321Y012516D02*
X015759Y012516D01*
X015759Y012593D02*
X011244Y012593D01*
X011167Y012670D02*
X015759Y012670D01*
X015759Y012747D02*
X011090Y012747D01*
X010942Y012642D02*
X012963Y010621D01*
X013121Y010463D01*
X013121Y008118D01*
X012376Y008118D01*
X012376Y009650D01*
X012294Y009732D01*
X011169Y009732D01*
X009817Y011084D01*
X009817Y011792D01*
X009817Y011815D01*
X009735Y011897D01*
X008203Y011897D01*
X008203Y012642D01*
X010942Y012642D01*
X010991Y012593D02*
X008203Y012593D01*
X008203Y012516D02*
X011069Y012516D01*
X011146Y012438D02*
X008203Y012438D01*
X008203Y012361D02*
X011223Y012361D01*
X011300Y012284D02*
X008203Y012284D01*
X008203Y012207D02*
X011378Y012207D01*
X011455Y012129D02*
X008203Y012129D01*
X008203Y012052D02*
X011532Y012052D01*
X011609Y011975D02*
X008203Y011975D01*
X008203Y011898D02*
X011686Y011898D01*
X011764Y011820D02*
X009812Y011820D01*
X009817Y011743D02*
X011841Y011743D01*
X011918Y011666D02*
X009817Y011666D01*
X009817Y011589D02*
X011995Y011589D01*
X012073Y011511D02*
X009817Y011511D01*
X009817Y011434D02*
X012150Y011434D01*
X012227Y011357D02*
X009817Y011357D01*
X009817Y011280D02*
X012304Y011280D01*
X012382Y011202D02*
X009817Y011202D01*
X009817Y011125D02*
X012459Y011125D01*
X012536Y011048D02*
X009853Y011048D01*
X009930Y010971D02*
X012613Y010971D01*
X012691Y010893D02*
X010007Y010893D01*
X010084Y010816D02*
X012768Y010816D01*
X012845Y010739D02*
X010162Y010739D01*
X010239Y010662D02*
X012922Y010662D01*
X013000Y010585D02*
X010316Y010585D01*
X010393Y010507D02*
X013077Y010507D01*
X013121Y010430D02*
X010471Y010430D01*
X010548Y010353D02*
X013121Y010353D01*
X013121Y010276D02*
X010625Y010276D01*
X010702Y010198D02*
X013121Y010198D01*
X013121Y010121D02*
X010780Y010121D01*
X010857Y010044D02*
X013121Y010044D01*
X013121Y009967D02*
X010934Y009967D01*
X011011Y009889D02*
X013121Y009889D01*
X013121Y009812D02*
X011089Y009812D01*
X011166Y009735D02*
X013121Y009735D01*
X013121Y009658D02*
X012368Y009658D01*
X012376Y009580D02*
X013121Y009580D01*
X013121Y009503D02*
X012376Y009503D01*
X012376Y009426D02*
X013121Y009426D01*
X013121Y009349D02*
X012376Y009349D01*
X012376Y009271D02*
X013121Y009271D01*
X013121Y009194D02*
X012376Y009194D01*
X012376Y009117D02*
X013121Y009117D01*
X013121Y009040D02*
X012376Y009040D01*
X012376Y008962D02*
X013121Y008962D01*
X013121Y008885D02*
X012376Y008885D01*
X012376Y008808D02*
X013121Y008808D01*
X013121Y008731D02*
X012376Y008731D01*
X012376Y008654D02*
X013121Y008654D01*
X013121Y008576D02*
X012376Y008576D01*
X012376Y008499D02*
X013121Y008499D01*
X013121Y008422D02*
X012376Y008422D01*
X012376Y008345D02*
X013121Y008345D01*
X013121Y008267D02*
X012376Y008267D01*
X012376Y008190D02*
X013121Y008190D01*
X012197Y008190D02*
X008203Y008190D01*
X008203Y008118D02*
X008203Y011718D01*
X009638Y011718D01*
X009638Y011010D01*
X011095Y009553D01*
X012197Y009553D01*
X012197Y008118D01*
X008203Y008118D01*
X008203Y008267D02*
X012197Y008267D01*
X012197Y008345D02*
X008203Y008345D01*
X008203Y008422D02*
X012197Y008422D01*
X012197Y008499D02*
X008203Y008499D01*
X008203Y008576D02*
X012197Y008576D01*
X012197Y008654D02*
X008203Y008654D01*
X008203Y008731D02*
X012197Y008731D01*
X012197Y008808D02*
X008203Y008808D01*
X008203Y008885D02*
X012197Y008885D01*
X012197Y008962D02*
X008203Y008962D01*
X008203Y009040D02*
X012197Y009040D01*
X012197Y009117D02*
X008203Y009117D01*
X008203Y009194D02*
X012197Y009194D01*
X012197Y009271D02*
X008203Y009271D01*
X008203Y009349D02*
X012197Y009349D01*
X012197Y009426D02*
X008203Y009426D01*
X008203Y009503D02*
X012197Y009503D01*
X011068Y009580D02*
X008203Y009580D01*
X008203Y009658D02*
X010990Y009658D01*
X010913Y009735D02*
X008203Y009735D01*
X008203Y009812D02*
X010836Y009812D01*
X010759Y009889D02*
X008203Y009889D01*
X008203Y009967D02*
X010681Y009967D01*
X010604Y010044D02*
X008203Y010044D01*
X008203Y010121D02*
X010527Y010121D01*
X010450Y010198D02*
X008203Y010198D01*
X008203Y010276D02*
X010372Y010276D01*
X010295Y010353D02*
X008203Y010353D01*
X008203Y010430D02*
X010218Y010430D01*
X010141Y010507D02*
X008203Y010507D01*
X008203Y010585D02*
X010063Y010585D01*
X009986Y010662D02*
X008203Y010662D01*
X008203Y010739D02*
X009909Y010739D01*
X009832Y010816D02*
X008203Y010816D01*
X008203Y010893D02*
X009754Y010893D01*
X009677Y010971D02*
X008203Y010971D01*
X008203Y011048D02*
X009638Y011048D01*
X009638Y011125D02*
X008203Y011125D01*
X008203Y011202D02*
X009638Y011202D01*
X009638Y011280D02*
X008203Y011280D01*
X008203Y011357D02*
X009638Y011357D01*
X009638Y011434D02*
X008203Y011434D01*
X008203Y011511D02*
X009638Y011511D01*
X009638Y011589D02*
X008203Y011589D01*
X008203Y011666D02*
X009638Y011666D01*
X008203Y012824D02*
X015759Y012824D01*
X015759Y012902D02*
X008203Y012902D01*
X008203Y012979D02*
X014042Y012979D01*
X014163Y012935D02*
X013862Y013045D01*
X013862Y013045D01*
X013616Y013251D01*
X013616Y013251D01*
X013456Y013529D01*
X013456Y013529D01*
X013400Y013844D01*
X013400Y013844D01*
X013456Y014160D01*
X013456Y014160D01*
X013616Y014438D01*
X013616Y014438D01*
X013862Y014644D01*
X014163Y014754D01*
X014163Y014754D01*
X014484Y014754D01*
X014785Y014644D01*
X014785Y014644D01*
X015031Y014438D01*
X015031Y014438D01*
X015191Y014160D01*
X015191Y014160D01*
X015247Y013844D01*
X015247Y013844D01*
X015191Y013529D01*
X015191Y013529D01*
X015031Y013251D01*
X015031Y013251D01*
X015031Y013251D01*
X014785Y013045D01*
X014785Y013045D01*
X014484Y012935D01*
X014249Y012935D01*
X014163Y012935D01*
X013848Y013056D02*
X008203Y013056D01*
X008203Y013133D02*
X013756Y013133D01*
X013664Y013211D02*
X008203Y013211D01*
X008203Y013288D02*
X013594Y013288D01*
X013550Y013365D02*
X008203Y013365D01*
X008203Y013442D02*
X013505Y013442D01*
X013461Y013520D02*
X008203Y013520D01*
X008203Y013597D02*
X013443Y013597D01*
X013430Y013674D02*
X008203Y013674D01*
X008203Y013751D02*
X013416Y013751D01*
X013403Y013829D02*
X008203Y013829D01*
X008203Y013906D02*
X013411Y013906D01*
X013424Y013983D02*
X008203Y013983D01*
X008203Y014060D02*
X013438Y014060D01*
X013452Y014138D02*
X008203Y014138D01*
X008203Y014215D02*
X013487Y014215D01*
X013532Y014292D02*
X008203Y014292D01*
X008203Y014369D02*
X013576Y014369D01*
X013626Y014447D02*
X008203Y014447D01*
X008203Y014524D02*
X013718Y014524D01*
X013810Y014601D02*
X008203Y014601D01*
X008203Y014678D02*
X013956Y014678D01*
X014691Y014678D02*
X015759Y014678D01*
X015759Y014601D02*
X014836Y014601D01*
X014928Y014524D02*
X015759Y014524D01*
X015759Y014447D02*
X015020Y014447D01*
X015070Y014369D02*
X015759Y014369D01*
X015759Y014292D02*
X015115Y014292D01*
X015159Y014215D02*
X015759Y014215D01*
X015759Y014138D02*
X015195Y014138D01*
X015209Y014060D02*
X015759Y014060D01*
X015759Y013983D02*
X015222Y013983D01*
X015236Y013906D02*
X015759Y013906D01*
X015759Y013829D02*
X015244Y013829D01*
X015230Y013751D02*
X015759Y013751D01*
X015759Y013674D02*
X015217Y013674D01*
X015203Y013597D02*
X015759Y013597D01*
X015759Y013520D02*
X015186Y013520D01*
X015141Y013442D02*
X015759Y013442D01*
X015759Y013365D02*
X015097Y013365D01*
X015052Y013288D02*
X015759Y013288D01*
X015759Y013211D02*
X014983Y013211D01*
X014891Y013133D02*
X015759Y013133D01*
X015759Y013056D02*
X014799Y013056D01*
X014604Y012979D02*
X015759Y012979D01*
X015759Y014756D02*
X008203Y014756D01*
X008203Y014833D02*
X015759Y014833D01*
X015759Y014910D02*
X008203Y014910D01*
X008203Y014987D02*
X015759Y014987D01*
X015759Y015064D02*
X008203Y015064D01*
X008203Y015142D02*
X015759Y015142D01*
X015759Y015219D02*
X008203Y015219D01*
X008024Y015219D02*
X000289Y015219D01*
X000289Y015280D02*
X008024Y015280D01*
X008024Y012821D01*
X005032Y012821D01*
X002748Y010537D01*
X002748Y008118D01*
X000289Y008118D01*
X000289Y015280D01*
X000289Y015142D02*
X008024Y015142D01*
X008024Y015064D02*
X000289Y015064D01*
X000289Y014987D02*
X008024Y014987D01*
X008024Y014910D02*
X000289Y014910D01*
X000289Y014833D02*
X008024Y014833D01*
X008024Y014756D02*
X000289Y014756D01*
X000289Y014678D02*
X001357Y014678D01*
X001263Y014644D02*
X001263Y014644D01*
X001017Y014438D01*
X000857Y014160D01*
X000801Y013844D01*
X000857Y013529D01*
X000857Y013529D01*
X001017Y013251D01*
X001017Y013251D01*
X001263Y013045D01*
X001263Y013045D01*
X001564Y012935D01*
X001651Y012935D01*
X001885Y012935D01*
X002187Y013045D01*
X002432Y013251D01*
X002432Y013251D01*
X002593Y013529D01*
X002648Y013844D01*
X002648Y013844D01*
X002593Y014160D01*
X002432Y014438D01*
X002187Y014644D01*
X002187Y014644D01*
X001885Y014754D01*
X001564Y014754D01*
X001263Y014644D01*
X001212Y014601D02*
X000289Y014601D01*
X000289Y014524D02*
X001120Y014524D01*
X001028Y014447D02*
X000289Y014447D01*
X000289Y014369D02*
X000978Y014369D01*
X001017Y014438D02*
X001017Y014438D01*
X001017Y014438D01*
X000933Y014292D02*
X000289Y014292D01*
X000289Y014215D02*
X000889Y014215D01*
X000857Y014160D02*
X000857Y014160D01*
X000853Y014138D02*
X000289Y014138D01*
X000289Y014060D02*
X000839Y014060D01*
X000826Y013983D02*
X000289Y013983D01*
X000289Y013906D02*
X000812Y013906D01*
X000801Y013844D02*
X000801Y013844D01*
X000804Y013829D02*
X000289Y013829D01*
X000289Y013751D02*
X000818Y013751D01*
X000831Y013674D02*
X000289Y013674D01*
X000289Y013597D02*
X000845Y013597D01*
X000862Y013520D02*
X000289Y013520D01*
X000289Y013442D02*
X000907Y013442D01*
X000951Y013365D02*
X000289Y013365D01*
X000289Y013288D02*
X000996Y013288D01*
X001065Y013211D02*
X000289Y013211D01*
X000289Y013133D02*
X001157Y013133D01*
X001249Y013056D02*
X000289Y013056D01*
X000289Y012979D02*
X001444Y012979D01*
X002006Y012979D02*
X008024Y012979D01*
X008024Y013056D02*
X002200Y013056D01*
X002187Y013045D02*
X002187Y013045D01*
X002292Y013133D02*
X008024Y013133D01*
X008024Y013211D02*
X002384Y013211D01*
X002454Y013288D02*
X008024Y013288D01*
X008024Y013365D02*
X002498Y013365D01*
X002543Y013442D02*
X008024Y013442D01*
X008024Y013520D02*
X002587Y013520D01*
X002605Y013597D02*
X008024Y013597D01*
X008024Y013674D02*
X002618Y013674D01*
X002632Y013751D02*
X008024Y013751D01*
X008024Y013829D02*
X002645Y013829D01*
X002637Y013906D02*
X008024Y013906D01*
X008024Y013983D02*
X002624Y013983D01*
X002610Y014060D02*
X008024Y014060D01*
X008024Y014138D02*
X002596Y014138D01*
X002593Y014160D02*
X002593Y014160D01*
X002561Y014215D02*
X008024Y014215D01*
X008024Y014292D02*
X002516Y014292D01*
X002472Y014369D02*
X008024Y014369D01*
X008024Y014447D02*
X002422Y014447D01*
X002432Y014438D02*
X002432Y014438D01*
X002330Y014524D02*
X008024Y014524D01*
X008024Y014601D02*
X002238Y014601D01*
X002092Y014678D02*
X008024Y014678D01*
X008024Y012902D02*
X000289Y012902D01*
X000289Y012824D02*
X008024Y012824D01*
X008024Y012642D02*
X008024Y011897D01*
X006313Y011897D01*
X006231Y011815D01*
X006231Y011084D01*
X004879Y009732D01*
X003754Y009732D01*
X003672Y009650D01*
X003672Y008118D01*
X002927Y008118D01*
X002927Y010463D01*
X003085Y010621D01*
X005106Y012642D01*
X008024Y012642D01*
X008024Y012593D02*
X005057Y012593D01*
X004979Y012516D02*
X008024Y012516D01*
X008024Y012438D02*
X004902Y012438D01*
X004825Y012361D02*
X008024Y012361D01*
X008024Y012284D02*
X004748Y012284D01*
X004671Y012207D02*
X008024Y012207D01*
X008024Y012129D02*
X004593Y012129D01*
X004516Y012052D02*
X008024Y012052D01*
X008024Y011975D02*
X004439Y011975D01*
X004362Y011898D02*
X008024Y011898D01*
X008024Y011718D02*
X008024Y008118D01*
X003851Y008118D01*
X003851Y009553D01*
X004953Y009553D01*
X006410Y011010D01*
X006410Y011718D01*
X008024Y011718D01*
X008024Y011666D02*
X006410Y011666D01*
X006410Y011589D02*
X008024Y011589D01*
X008024Y011511D02*
X006410Y011511D01*
X006410Y011434D02*
X008024Y011434D01*
X008024Y011357D02*
X006410Y011357D01*
X006410Y011280D02*
X008024Y011280D01*
X008024Y011202D02*
X006410Y011202D01*
X006410Y011125D02*
X008024Y011125D01*
X008024Y011048D02*
X006410Y011048D01*
X006371Y010971D02*
X008024Y010971D01*
X008024Y010893D02*
X006294Y010893D01*
X006216Y010816D02*
X008024Y010816D01*
X008024Y010739D02*
X006139Y010739D01*
X006062Y010662D02*
X008024Y010662D01*
X008024Y010585D02*
X005985Y010585D01*
X005907Y010507D02*
X008024Y010507D01*
X008024Y010430D02*
X005830Y010430D01*
X005753Y010353D02*
X008024Y010353D01*
X008024Y010276D02*
X005676Y010276D01*
X005598Y010198D02*
X008024Y010198D01*
X008024Y010121D02*
X005521Y010121D01*
X005444Y010044D02*
X008024Y010044D01*
X008024Y009967D02*
X005367Y009967D01*
X005289Y009889D02*
X008024Y009889D01*
X008024Y009812D02*
X005212Y009812D01*
X005135Y009735D02*
X008024Y009735D01*
X008024Y009658D02*
X005058Y009658D01*
X004981Y009580D02*
X008024Y009580D01*
X008024Y009503D02*
X003851Y009503D01*
X003851Y009426D02*
X008024Y009426D01*
X008024Y009349D02*
X003851Y009349D01*
X003851Y009271D02*
X008024Y009271D01*
X008024Y009194D02*
X003851Y009194D01*
X003851Y009117D02*
X008024Y009117D01*
X008024Y009040D02*
X003851Y009040D01*
X003851Y008962D02*
X008024Y008962D01*
X008024Y008885D02*
X003851Y008885D01*
X003851Y008808D02*
X008024Y008808D01*
X008024Y008731D02*
X003851Y008731D01*
X003851Y008654D02*
X008024Y008654D01*
X008024Y008576D02*
X003851Y008576D01*
X003851Y008499D02*
X008024Y008499D01*
X008024Y008422D02*
X003851Y008422D01*
X003851Y008345D02*
X008024Y008345D01*
X008024Y008267D02*
X003851Y008267D01*
X003851Y008190D02*
X008024Y008190D01*
X007040Y007881D02*
X000289Y007881D01*
X000289Y007804D02*
X007040Y007804D01*
X007040Y007727D02*
X000289Y007727D01*
X000289Y007649D02*
X007040Y007649D01*
X007040Y007572D02*
X000289Y007572D01*
X000289Y007495D02*
X007040Y007495D01*
X007040Y007418D02*
X000289Y007418D01*
X000289Y007340D02*
X007040Y007340D01*
X007040Y007263D02*
X000289Y007263D01*
X000289Y007186D02*
X007040Y007186D01*
X007040Y007109D02*
X000289Y007109D01*
X000289Y007031D02*
X007040Y007031D01*
X007040Y006954D02*
X000289Y006954D01*
X000289Y006877D02*
X007040Y006877D01*
X007040Y006800D02*
X000289Y006800D01*
X000289Y006723D02*
X007040Y006723D01*
X007040Y006645D02*
X000289Y006645D01*
X000289Y006568D02*
X007040Y006568D01*
X007040Y006491D02*
X000289Y006491D01*
X000289Y006414D02*
X007040Y006414D01*
X009436Y004019D02*
X013121Y004019D01*
X013121Y003942D02*
X009359Y003942D01*
X009281Y003865D02*
X013121Y003865D01*
X013069Y003787D02*
X009204Y003787D01*
X009127Y003710D02*
X012991Y003710D01*
X012914Y003633D02*
X009050Y003633D01*
X008972Y003556D02*
X012837Y003556D01*
X012760Y003478D02*
X008895Y003478D01*
X008818Y003401D02*
X012682Y003401D01*
X012605Y003324D02*
X008741Y003324D01*
X008663Y003247D02*
X012528Y003247D01*
X012451Y003169D02*
X008586Y003169D01*
X008509Y003092D02*
X012373Y003092D01*
X012296Y003015D02*
X008432Y003015D01*
X008354Y002938D02*
X012219Y002938D01*
X012142Y002860D02*
X008277Y002860D01*
X008203Y002552D02*
X008880Y002552D01*
X008830Y002474D02*
X008203Y002474D01*
X008203Y002397D02*
X008830Y002397D01*
X008830Y002320D02*
X008203Y002320D01*
X008203Y002243D02*
X008830Y002243D01*
X008830Y002165D02*
X008203Y002165D01*
X008203Y002088D02*
X008830Y002088D01*
X008830Y002011D02*
X008203Y002011D01*
X008203Y001934D02*
X008830Y001934D01*
X008830Y001856D02*
X008203Y001856D01*
X008203Y001779D02*
X008830Y001779D01*
X008830Y001702D02*
X008203Y001702D01*
X008203Y001625D02*
X008830Y001625D01*
X008830Y001547D02*
X008203Y001547D01*
X008203Y001470D02*
X008830Y001470D01*
X008830Y001393D02*
X008203Y001393D01*
X008203Y001316D02*
X008830Y001316D01*
X008830Y001238D02*
X008203Y001238D01*
X008203Y001161D02*
X008830Y001161D01*
X008830Y001084D02*
X008203Y001084D01*
X008203Y001007D02*
X008830Y001007D01*
X009008Y001007D02*
X011961Y001007D01*
X011961Y000992D02*
X009008Y000992D01*
X009008Y001937D01*
X009008Y002130D01*
X009008Y002427D01*
X011961Y002427D01*
X011961Y000992D01*
X011961Y001084D02*
X009008Y001084D01*
X009008Y001161D02*
X011961Y001161D01*
X011961Y001238D02*
X009008Y001238D01*
X009008Y001316D02*
X011961Y001316D01*
X011961Y001393D02*
X009008Y001393D01*
X009008Y001470D02*
X011961Y001470D01*
X011961Y001547D02*
X009008Y001547D01*
X009008Y001625D02*
X011961Y001625D01*
X011961Y001702D02*
X009008Y001702D01*
X009008Y001779D02*
X011961Y001779D01*
X011961Y001856D02*
X009008Y001856D01*
X009008Y001934D02*
X011961Y001934D01*
X011961Y002011D02*
X009008Y002011D01*
X009008Y001937D02*
X009008Y001937D01*
X009008Y002088D02*
X011961Y002088D01*
X011961Y002165D02*
X009008Y002165D01*
X009008Y002130D02*
X009008Y002130D01*
X009008Y002243D02*
X011961Y002243D01*
X011961Y002320D02*
X009008Y002320D01*
X009008Y002397D02*
X011961Y002397D01*
X012140Y002397D02*
X013405Y002397D01*
X013400Y002427D02*
X013400Y002427D01*
X013408Y002474D02*
X012140Y002474D01*
X012140Y002320D02*
X013419Y002320D01*
X013432Y002243D02*
X012140Y002243D01*
X012140Y002165D02*
X013446Y002165D01*
X013456Y002111D02*
X013456Y002111D01*
X013469Y002088D02*
X012140Y002088D01*
X012140Y002011D02*
X013513Y002011D01*
X013558Y001934D02*
X012140Y001934D01*
X012140Y001856D02*
X013603Y001856D01*
X013616Y001833D02*
X013616Y001833D01*
X013681Y001779D02*
X012140Y001779D01*
X012140Y001702D02*
X013773Y001702D01*
X013862Y001627D02*
X013862Y001627D01*
X013869Y001625D02*
X012140Y001625D01*
X012140Y001547D02*
X014081Y001547D01*
X014484Y001518D02*
X014484Y001518D01*
X014565Y001547D02*
X015759Y001547D01*
X015759Y001470D02*
X012140Y001470D01*
X012140Y001393D02*
X015759Y001393D01*
X015759Y001316D02*
X012140Y001316D01*
X012140Y001238D02*
X015759Y001238D01*
X015759Y001161D02*
X012140Y001161D01*
X012140Y001084D02*
X015759Y001084D01*
X015759Y001007D02*
X012140Y001007D01*
X014730Y003247D02*
X015759Y003247D01*
X015759Y003169D02*
X014853Y003169D01*
X014785Y003227D02*
X014785Y003227D01*
X014945Y003092D02*
X015759Y003092D01*
X015759Y003015D02*
X015034Y003015D01*
X015031Y003021D02*
X015031Y003021D01*
X015078Y002938D02*
X015759Y002938D01*
X015759Y002860D02*
X015123Y002860D01*
X015168Y002783D02*
X015759Y002783D01*
X015759Y002706D02*
X015197Y002706D01*
X015191Y002743D02*
X015191Y002743D01*
X015211Y002629D02*
X015759Y002629D01*
X015759Y002552D02*
X015225Y002552D01*
X015238Y002474D02*
X015759Y002474D01*
X015759Y002397D02*
X015241Y002397D01*
X015247Y002427D02*
X015247Y002427D01*
X015228Y002320D02*
X015759Y002320D01*
X015759Y002243D02*
X015214Y002243D01*
X015200Y002165D02*
X015759Y002165D01*
X015759Y002088D02*
X015178Y002088D01*
X015133Y002011D02*
X015759Y002011D01*
X015759Y001934D02*
X015088Y001934D01*
X015044Y001856D02*
X015759Y001856D01*
X015759Y001779D02*
X014966Y001779D01*
X015031Y001833D02*
X015031Y001833D01*
X015031Y001833D01*
X014874Y001702D02*
X015759Y001702D01*
X015759Y001625D02*
X014777Y001625D01*
X014785Y001627D02*
X014785Y001627D01*
X013121Y004096D02*
X009513Y004096D01*
X009590Y004174D02*
X013121Y004174D01*
X013121Y004251D02*
X009667Y004251D01*
X009745Y004328D02*
X013121Y004328D01*
X013121Y004405D02*
X009822Y004405D01*
X009899Y004483D02*
X013121Y004483D01*
X013121Y004560D02*
X009976Y004560D01*
X010054Y004637D02*
X013121Y004637D01*
X013121Y004714D02*
X010131Y004714D01*
X010208Y004791D02*
X013121Y004791D01*
X013121Y004869D02*
X010285Y004869D01*
X010363Y004946D02*
X013121Y004946D01*
X013121Y005023D02*
X010440Y005023D01*
X010517Y005100D02*
X013121Y005100D01*
X013121Y005178D02*
X010594Y005178D01*
X010672Y005255D02*
X013121Y005255D01*
X013121Y005332D02*
X010749Y005332D01*
X010826Y005409D02*
X013121Y005409D01*
X013121Y005487D02*
X010903Y005487D01*
X010981Y005564D02*
X013121Y005564D01*
X013121Y005641D02*
X011058Y005641D01*
X011135Y005718D02*
X013121Y005718D01*
X013121Y005796D02*
X011212Y005796D01*
X011290Y005873D02*
X013121Y005873D01*
X013121Y005950D02*
X011367Y005950D01*
X011444Y006027D02*
X013121Y006027D01*
X007040Y001934D02*
X002490Y001934D01*
X002445Y001856D02*
X007040Y001856D01*
X007040Y001779D02*
X002367Y001779D01*
X002275Y001702D02*
X007040Y001702D01*
X007040Y001625D02*
X002179Y001625D01*
X002187Y001627D02*
X002187Y001627D01*
X001967Y001547D02*
X007040Y001547D01*
X003672Y008190D02*
X002927Y008190D01*
X002927Y008267D02*
X003672Y008267D01*
X003672Y008345D02*
X002927Y008345D01*
X002927Y008422D02*
X003672Y008422D01*
X003672Y008499D02*
X002927Y008499D01*
X002927Y008576D02*
X003672Y008576D01*
X003672Y008654D02*
X002927Y008654D01*
X002927Y008731D02*
X003672Y008731D01*
X003672Y008808D02*
X002927Y008808D01*
X002927Y008885D02*
X003672Y008885D01*
X003672Y008962D02*
X002927Y008962D01*
X002927Y009040D02*
X003672Y009040D01*
X003672Y009117D02*
X002927Y009117D01*
X002927Y009194D02*
X003672Y009194D01*
X003672Y009271D02*
X002927Y009271D01*
X002927Y009349D02*
X003672Y009349D01*
X003672Y009426D02*
X002927Y009426D01*
X002927Y009503D02*
X003672Y009503D01*
X003672Y009580D02*
X002927Y009580D01*
X002927Y009658D02*
X003680Y009658D01*
X002927Y009735D02*
X004882Y009735D01*
X004959Y009812D02*
X002927Y009812D01*
X002927Y009889D02*
X005037Y009889D01*
X005114Y009967D02*
X002927Y009967D01*
X002927Y010044D02*
X005191Y010044D01*
X005268Y010121D02*
X002927Y010121D01*
X002927Y010198D02*
X005346Y010198D01*
X005423Y010276D02*
X002927Y010276D01*
X002927Y010353D02*
X005500Y010353D01*
X005577Y010430D02*
X002927Y010430D01*
X002971Y010507D02*
X005655Y010507D01*
X005732Y010585D02*
X003048Y010585D01*
X003126Y010662D02*
X005809Y010662D01*
X005886Y010739D02*
X003203Y010739D01*
X003280Y010816D02*
X005964Y010816D01*
X006041Y010893D02*
X003357Y010893D01*
X003435Y010971D02*
X006118Y010971D01*
X006195Y011048D02*
X003512Y011048D01*
X003589Y011125D02*
X006231Y011125D01*
X006231Y011202D02*
X003666Y011202D01*
X003744Y011280D02*
X006231Y011280D01*
X006231Y011357D02*
X003821Y011357D01*
X003898Y011434D02*
X006231Y011434D01*
X006231Y011511D02*
X003975Y011511D01*
X004053Y011589D02*
X006231Y011589D01*
X006231Y011666D02*
X004130Y011666D01*
X004207Y011743D02*
X006231Y011743D01*
X006236Y011820D02*
X004284Y011820D01*
X004186Y011975D02*
X000289Y011975D01*
X000289Y012052D02*
X004263Y012052D01*
X004340Y012129D02*
X000289Y012129D01*
X000289Y012207D02*
X004418Y012207D01*
X004495Y012284D02*
X000289Y012284D01*
X000289Y012361D02*
X004572Y012361D01*
X004649Y012438D02*
X000289Y012438D01*
X000289Y012516D02*
X004727Y012516D01*
X004804Y012593D02*
X000289Y012593D01*
X000289Y012670D02*
X004881Y012670D01*
X004958Y012747D02*
X000289Y012747D01*
X000289Y011898D02*
X004109Y011898D01*
X004032Y011820D02*
X000289Y011820D01*
X000289Y011743D02*
X003954Y011743D01*
X003877Y011666D02*
X000289Y011666D01*
X000289Y011589D02*
X003800Y011589D01*
X003723Y011511D02*
X000289Y011511D01*
X000289Y011434D02*
X003645Y011434D01*
X003568Y011357D02*
X000289Y011357D01*
X000289Y011280D02*
X003491Y011280D01*
X003414Y011202D02*
X000289Y011202D01*
X000289Y011125D02*
X003336Y011125D01*
X003259Y011048D02*
X000289Y011048D01*
X000289Y010971D02*
X003182Y010971D01*
X003105Y010893D02*
X000289Y010893D01*
X000289Y010816D02*
X003027Y010816D01*
X002950Y010739D02*
X000289Y010739D01*
X000289Y010662D02*
X002873Y010662D01*
X002796Y010585D02*
X000289Y010585D01*
X000289Y010507D02*
X002748Y010507D01*
X002748Y010430D02*
X000289Y010430D01*
X000289Y010353D02*
X002748Y010353D01*
X002748Y010276D02*
X000289Y010276D01*
X000289Y010198D02*
X002748Y010198D01*
X002748Y010121D02*
X000289Y010121D01*
X000289Y010044D02*
X002748Y010044D01*
X002748Y009967D02*
X000289Y009967D01*
X000289Y009889D02*
X002748Y009889D01*
X002748Y009812D02*
X000289Y009812D01*
X000289Y009735D02*
X002748Y009735D01*
X002748Y009658D02*
X000289Y009658D01*
X000289Y009580D02*
X002748Y009580D01*
X002748Y009503D02*
X000289Y009503D01*
X000289Y009426D02*
X002748Y009426D01*
X002748Y009349D02*
X000289Y009349D01*
X000289Y009271D02*
X002748Y009271D01*
X002748Y009194D02*
X000289Y009194D01*
X000289Y009117D02*
X002748Y009117D01*
X002748Y009040D02*
X000289Y009040D01*
X000289Y008962D02*
X002748Y008962D01*
X002748Y008885D02*
X000289Y008885D01*
X000289Y008808D02*
X002748Y008808D01*
X002748Y008731D02*
X000289Y008731D01*
X000289Y008654D02*
X002748Y008654D01*
X002748Y008576D02*
X000289Y008576D01*
X000289Y008499D02*
X002748Y008499D01*
X002748Y008422D02*
X000289Y008422D01*
X000289Y008345D02*
X002748Y008345D01*
X002748Y008267D02*
X000289Y008267D01*
X000289Y008190D02*
X002748Y008190D01*
D18*
X002512Y008333D03*
X002119Y008333D03*
X002119Y008726D03*
X002512Y008726D03*
X002512Y009120D03*
X002119Y009120D03*
X001725Y009120D03*
X001725Y009907D03*
X000937Y009907D03*
X000937Y009120D03*
X000937Y008333D03*
X001725Y008333D03*
X001725Y007545D03*
X002119Y007545D03*
X002512Y007545D03*
X002512Y007151D03*
X002512Y006758D03*
X002119Y006758D03*
X002119Y007151D03*
X001725Y006758D03*
X000937Y006758D03*
X000937Y007545D03*
X001331Y005970D03*
X001331Y005183D03*
X001331Y004396D03*
X002119Y004396D03*
X002906Y004396D03*
X002906Y005183D03*
X003693Y005183D03*
X004481Y005183D03*
X005268Y005183D03*
X005268Y005970D03*
X004481Y005970D03*
X003693Y005970D03*
X002906Y005970D03*
X002119Y005970D03*
X002119Y005183D03*
X003693Y004396D03*
X004481Y004396D03*
X005268Y004396D03*
X006056Y004396D03*
X006843Y004396D03*
X006843Y005183D03*
X007630Y005183D03*
X007630Y005970D03*
X006843Y005970D03*
X006056Y005970D03*
X006056Y005183D03*
X006056Y006758D03*
X006843Y006758D03*
X006843Y007545D03*
X007630Y007545D03*
X007630Y006758D03*
X008418Y006758D03*
X009205Y006758D03*
X009205Y007545D03*
X008418Y007545D03*
X008418Y008333D03*
X008418Y009120D03*
X009205Y009120D03*
X009205Y009907D03*
X008418Y009907D03*
X007630Y009907D03*
X007630Y009120D03*
X006843Y009120D03*
X006843Y009907D03*
X006056Y009907D03*
X006056Y009120D03*
X006056Y008333D03*
X006843Y008333D03*
X007630Y008333D03*
X009205Y008333D03*
X009993Y008333D03*
X010780Y008333D03*
X010780Y009120D03*
X011567Y009120D03*
X011567Y008726D03*
X011961Y008726D03*
X011961Y009120D03*
X012552Y009120D03*
X012945Y009120D03*
X012945Y008726D03*
X012552Y008726D03*
X012552Y008333D03*
X012945Y008333D03*
X013536Y008333D03*
X013930Y008333D03*
X014323Y008333D03*
X013930Y008726D03*
X013930Y009120D03*
X013536Y009120D03*
X013536Y008726D03*
X014323Y009120D03*
X014323Y009907D03*
X015111Y009907D03*
X015111Y009120D03*
X015111Y008333D03*
X015111Y007545D03*
X015111Y006758D03*
X015111Y005970D03*
X015111Y005183D03*
X015111Y004396D03*
X014323Y004396D03*
X014323Y005183D03*
X014323Y005970D03*
X014323Y006758D03*
X013930Y006758D03*
X013930Y007151D03*
X013536Y007151D03*
X013536Y006758D03*
X012945Y006758D03*
X012552Y006758D03*
X012552Y007151D03*
X012945Y007151D03*
X012945Y007545D03*
X012552Y007545D03*
X011961Y007545D03*
X011567Y007545D03*
X011567Y007151D03*
X011567Y006758D03*
X011961Y006758D03*
X011961Y007151D03*
X010780Y006758D03*
X010780Y007545D03*
X009993Y007545D03*
X009993Y006758D03*
X009993Y005970D03*
X010780Y005970D03*
X009993Y005183D03*
X009205Y005183D03*
X008418Y005183D03*
X008418Y005970D03*
X009205Y005970D03*
X009205Y004396D03*
X008418Y004396D03*
X007630Y004396D03*
X007630Y003608D03*
X006843Y003608D03*
X006843Y002821D03*
X007630Y002821D03*
X008418Y003608D03*
X009599Y002821D03*
X010386Y002821D03*
X010386Y003608D03*
X011174Y003608D03*
X011961Y003608D03*
X011961Y004396D03*
X011961Y005183D03*
X012748Y005183D03*
X012748Y005970D03*
X012748Y004396D03*
X013536Y003608D03*
X012748Y002821D03*
X011174Y002821D03*
X010386Y002033D03*
X010386Y001640D03*
X011174Y004396D03*
X013536Y007545D03*
X013930Y007545D03*
X014323Y007545D03*
X012945Y009514D03*
X012552Y009514D03*
X012748Y010301D03*
X011961Y010301D03*
X011961Y011088D03*
X011174Y011088D03*
X011174Y011876D03*
X010386Y011876D03*
X009599Y012073D03*
X009205Y012073D03*
X009205Y012466D03*
X009599Y012466D03*
X009205Y013057D03*
X008811Y013057D03*
X008418Y013057D03*
X008418Y013451D03*
X008811Y013451D03*
X008811Y013844D03*
X009205Y013451D03*
X009599Y013844D03*
X010386Y013844D03*
X011174Y013844D03*
X011961Y013844D03*
X012748Y013844D03*
X012748Y013057D03*
X013536Y012270D03*
X014323Y012270D03*
X015111Y012270D03*
X015111Y011482D03*
X015111Y010695D03*
X014323Y010695D03*
X014323Y011482D03*
X011961Y008333D03*
X011567Y008333D03*
X009993Y009120D03*
X009993Y009907D03*
X009205Y010695D03*
X009205Y011088D03*
X009205Y011482D03*
X008811Y011482D03*
X008418Y011482D03*
X008418Y011088D03*
X008811Y011088D03*
X008418Y010695D03*
X007630Y010695D03*
X007630Y011088D03*
X007237Y011088D03*
X007237Y011482D03*
X007630Y011482D03*
X007630Y012073D03*
X007237Y012073D03*
X007237Y012466D03*
X007630Y012466D03*
X007630Y013057D03*
X007237Y013057D03*
X007237Y013451D03*
X007630Y013451D03*
X007237Y013844D03*
X006843Y013451D03*
X006449Y013844D03*
X005662Y013844D03*
X004874Y013844D03*
X004087Y013844D03*
X003300Y013844D03*
X003300Y013057D03*
X002512Y012270D03*
X001725Y012270D03*
X000937Y012270D03*
X000937Y011482D03*
X000937Y010695D03*
X001725Y010695D03*
X001725Y011482D03*
X003300Y010301D03*
X004087Y010301D03*
X004087Y011088D03*
X004874Y011088D03*
X004874Y011876D03*
X005662Y011876D03*
X006449Y012073D03*
X006843Y012073D03*
X006843Y012466D03*
X006449Y012466D03*
X006843Y013057D03*
X006843Y011482D03*
X006843Y011088D03*
X006843Y010695D03*
X008418Y012073D03*
X008811Y012073D03*
X008811Y012466D03*
X008418Y012466D03*
X008811Y014632D03*
X009599Y014632D03*
X010386Y014632D03*
X011174Y014632D03*
X011961Y014632D03*
X012748Y014632D03*
X007237Y014632D03*
X006449Y014632D03*
X005662Y014632D03*
X004874Y014632D03*
X004087Y014632D03*
X003300Y014632D03*
X003496Y009514D03*
X003103Y009514D03*
X003103Y009120D03*
X003496Y009120D03*
X003496Y008726D03*
X003103Y008726D03*
X003103Y008333D03*
X003496Y008333D03*
X004087Y008333D03*
X004481Y008333D03*
X004481Y008726D03*
X004481Y009120D03*
X004087Y009120D03*
X004087Y008726D03*
X005268Y008333D03*
X005268Y009120D03*
X005268Y007545D03*
X005268Y006758D03*
X004481Y006758D03*
X004481Y007151D03*
X004087Y007151D03*
X004087Y006758D03*
X003496Y006758D03*
X003103Y006758D03*
X003103Y007151D03*
X003496Y007151D03*
X003496Y007545D03*
X003103Y007545D03*
X004087Y007545D03*
X004481Y007545D03*
X006056Y007545D03*
X006056Y003608D03*
X006056Y002821D03*
X005268Y002821D03*
X005268Y003608D03*
X004481Y003608D03*
X003693Y003608D03*
X002906Y003608D03*
X003693Y002821D03*
X004481Y002821D03*
X004481Y002033D03*
X003693Y002033D03*
X005268Y002033D03*
X015111Y003608D03*
M02*
