G75*
G70*
%OFA0B0*%
%FSLAX24Y24*%
%IPPOS*%
%LPD*%
%AMOC8*
5,1,8,0,0,1.08239X$1,22.5*
%
%ADD10C,0.0110*%
%ADD11R,0.1772X0.0008*%
%ADD12R,0.1787X0.0008*%
%ADD13R,0.1803X0.0008*%
%ADD14R,0.0087X0.0008*%
%ADD15R,0.0094X0.0008*%
%ADD16R,0.0110X0.0008*%
%ADD17R,0.0126X0.0008*%
%ADD18R,0.0142X0.0008*%
%ADD19R,0.0157X0.0008*%
%ADD20R,0.0173X0.0008*%
%ADD21R,0.0181X0.0008*%
%ADD22R,0.0189X0.0008*%
%ADD23R,0.0197X0.0008*%
%ADD24R,0.0205X0.0008*%
%ADD25R,0.0220X0.0008*%
%ADD26R,0.0236X0.0008*%
%ADD27R,0.0118X0.0008*%
%ADD28R,0.0252X0.0008*%
%ADD29R,0.0283X0.0008*%
%ADD30R,0.0307X0.0008*%
%ADD31R,0.0339X0.0008*%
%ADD32R,0.0354X0.0008*%
%ADD33R,0.0047X0.0008*%
%ADD34R,0.0063X0.0008*%
%ADD35R,0.0079X0.0008*%
%ADD36R,0.0268X0.0008*%
%ADD37R,0.0299X0.0008*%
%ADD38R,0.0504X0.0008*%
%ADD39R,0.0315X0.0008*%
%ADD40R,0.0520X0.0008*%
%ADD41R,0.0331X0.0008*%
%ADD42R,0.0535X0.0008*%
%ADD43R,0.0543X0.0008*%
%ADD44R,0.0228X0.0008*%
%ADD45R,0.0551X0.0008*%
%ADD46R,0.0559X0.0008*%
%ADD47R,0.0276X0.0008*%
%ADD48R,0.0567X0.0008*%
%ADD49R,0.0362X0.0008*%
%ADD50R,0.0102X0.0008*%
%ADD51R,0.0591X0.0008*%
%ADD52R,0.0071X0.0008*%
%ADD53R,0.0055X0.0008*%
%ADD54R,0.0039X0.0008*%
%ADD55R,0.0346X0.0008*%
%ADD56R,0.0323X0.0008*%
%ADD57R,0.0244X0.0008*%
%ADD58R,0.0528X0.0008*%
%ADD59R,0.2024X0.0008*%
%ADD60R,0.2039X0.0008*%
%ADD61R,0.2047X0.0008*%
%ADD62R,0.2055X0.0008*%
%ADD63R,0.2031X0.0008*%
%ADD64R,0.2008X0.0008*%
%ADD65C,0.0080*%
D10*
X006237Y002876D02*
X006630Y002876D01*
X006827Y003073D01*
X006630Y003269D01*
X006237Y003269D01*
X006237Y003520D02*
X006827Y003520D01*
X006827Y003914D01*
X006827Y004165D02*
X006827Y004559D01*
X006827Y004809D02*
X006827Y005105D01*
X006729Y005203D01*
X006335Y005203D01*
X006237Y005105D01*
X006237Y004809D01*
X006827Y004809D01*
X006532Y004362D02*
X006532Y004165D01*
X006237Y004165D02*
X006827Y004165D01*
X007221Y004165D02*
X007713Y004165D01*
X007812Y004263D01*
X007812Y004460D01*
X007713Y004559D01*
X007221Y004559D01*
X007221Y004809D02*
X007812Y004809D01*
X007812Y005203D01*
X007516Y005006D02*
X007516Y004809D01*
X007221Y004809D02*
X007221Y005203D01*
X008245Y005203D02*
X008245Y004809D01*
X008835Y004809D01*
X008835Y005203D01*
X008835Y005454D02*
X008245Y005454D01*
X008835Y005848D01*
X008245Y005848D01*
X008540Y005006D02*
X008540Y004809D01*
X008835Y004559D02*
X008835Y004165D01*
X008245Y004165D01*
X008245Y004559D01*
X008540Y004362D02*
X008540Y004165D01*
X008540Y003914D02*
X008343Y003914D01*
X008245Y003816D01*
X008245Y003520D01*
X008835Y003520D01*
X008737Y003269D02*
X008540Y003269D01*
X008540Y003073D01*
X008343Y002876D02*
X008737Y002876D01*
X008835Y002974D01*
X008835Y003171D01*
X008737Y003269D01*
X008638Y003520D02*
X008638Y003816D01*
X008540Y003914D01*
X008638Y003717D02*
X008835Y003914D01*
X009229Y003914D02*
X009229Y003520D01*
X009819Y003520D01*
X009819Y003914D01*
X009819Y004165D02*
X009819Y004460D01*
X009721Y004559D01*
X009327Y004559D01*
X009229Y004460D01*
X009229Y004165D01*
X009819Y004165D01*
X009524Y003717D02*
X009524Y003520D01*
X009524Y003269D02*
X009327Y003269D01*
X009229Y003171D01*
X009229Y002876D01*
X009819Y002876D01*
X009623Y002876D02*
X009623Y003171D01*
X009524Y003269D01*
X009623Y003073D02*
X009819Y003269D01*
X008343Y003269D02*
X008245Y003171D01*
X008245Y002974D01*
X008343Y002876D01*
X007812Y002876D02*
X007812Y003171D01*
X007713Y003269D01*
X007615Y003269D01*
X007516Y003171D01*
X007516Y002876D01*
X007221Y002876D02*
X007221Y003171D01*
X007319Y003269D01*
X007418Y003269D01*
X007516Y003171D01*
X007812Y002876D02*
X007221Y002876D01*
X007221Y003520D02*
X007812Y003520D01*
X007812Y003914D01*
X006237Y004165D02*
X006237Y004559D01*
X010402Y013506D02*
X010599Y013899D01*
X010850Y013899D02*
X011046Y014096D01*
X011046Y013506D01*
X010850Y013506D02*
X011243Y013506D01*
X011494Y013506D02*
X011494Y013604D01*
X011593Y013604D01*
X011593Y013506D01*
X011494Y013506D01*
X011816Y013604D02*
X012210Y013998D01*
X012210Y013604D01*
X012112Y013506D01*
X011915Y013506D01*
X011816Y013604D01*
X011816Y013998D01*
X011915Y014096D01*
X012112Y014096D01*
X012210Y013998D01*
X012111Y014293D02*
X012210Y014391D01*
X012210Y014785D01*
X012111Y014884D01*
X011816Y014884D01*
X011816Y014293D01*
X012111Y014293D01*
X011565Y014293D02*
X011171Y014293D01*
X011171Y014884D01*
X011565Y014884D01*
X011368Y014588D02*
X011171Y014588D01*
X010920Y014293D02*
X010527Y014293D01*
X010527Y014884D01*
X010276Y014588D02*
X009882Y014588D01*
X009631Y014588D02*
X009631Y014490D01*
X009238Y014490D01*
X009238Y014588D02*
X009336Y014687D01*
X009533Y014687D01*
X009631Y014588D01*
X009533Y014293D02*
X009336Y014293D01*
X009238Y014391D01*
X009238Y014588D01*
X008987Y014687D02*
X008692Y014687D01*
X008593Y014588D01*
X008692Y014490D01*
X008888Y014490D01*
X008987Y014391D01*
X008888Y014293D01*
X008593Y014293D01*
X008342Y014293D02*
X008342Y014687D01*
X007949Y014687D02*
X007949Y014391D01*
X008047Y014293D01*
X008342Y014293D01*
X007698Y014391D02*
X007599Y014293D01*
X007402Y014293D01*
X007304Y014391D01*
X007304Y014588D01*
X007402Y014687D01*
X007599Y014687D01*
X007698Y014588D01*
X007698Y014391D01*
X007053Y014293D02*
X007053Y014884D01*
X007053Y014588D02*
X006659Y014588D01*
X006427Y014687D02*
X006230Y014687D01*
X006328Y014785D02*
X006328Y014391D01*
X006427Y014293D01*
X006659Y014293D02*
X006659Y014884D01*
X005979Y014588D02*
X005979Y014293D01*
X005979Y014588D02*
X005880Y014687D01*
X005684Y014687D01*
X005585Y014588D01*
X005334Y014687D02*
X005039Y014687D01*
X004941Y014588D01*
X004941Y014391D01*
X005039Y014293D01*
X005334Y014293D01*
X005334Y014195D02*
X005334Y014687D01*
X005585Y014884D02*
X005585Y014293D01*
X005334Y014195D02*
X005236Y014096D01*
X005138Y014096D01*
X004708Y014293D02*
X004511Y014293D01*
X004609Y014293D02*
X004609Y014687D01*
X004511Y014687D01*
X004609Y014884D02*
X004609Y014982D01*
X003866Y014884D02*
X003866Y014293D01*
X004260Y014293D01*
X010205Y013899D02*
X010402Y013506D01*
D11*
X008016Y006435D03*
D12*
X008016Y006443D03*
D13*
X008016Y006451D03*
X008016Y006459D03*
X008016Y006466D03*
X008016Y006474D03*
X008016Y006482D03*
X008016Y006490D03*
X008016Y006498D03*
X008016Y006506D03*
D14*
X007158Y006514D03*
X007158Y006522D03*
X007158Y006529D03*
X007158Y006537D03*
X007158Y006545D03*
X007158Y006553D03*
X007158Y006561D03*
X007158Y006569D03*
X007158Y006577D03*
X007158Y006585D03*
X007158Y006592D03*
X007158Y006600D03*
X007158Y006608D03*
X007158Y006616D03*
X007158Y006624D03*
X007158Y006632D03*
X007158Y006640D03*
X007158Y006648D03*
X007158Y006655D03*
X007158Y006663D03*
X007158Y006671D03*
X007158Y006679D03*
X007158Y006687D03*
X007158Y006695D03*
X007158Y006703D03*
X007158Y006710D03*
X007158Y006718D03*
X007158Y006726D03*
X007158Y006734D03*
X007158Y006742D03*
X007158Y006750D03*
X007158Y006758D03*
X007158Y006766D03*
X007158Y006773D03*
X007158Y006781D03*
X007158Y006789D03*
X007158Y006797D03*
X007158Y006805D03*
X007158Y006813D03*
X007158Y006821D03*
X007158Y006829D03*
X007158Y006836D03*
X007158Y006844D03*
X007158Y006852D03*
X007158Y006860D03*
X007158Y006868D03*
X007158Y006876D03*
X007158Y006884D03*
X007158Y006892D03*
X007158Y006899D03*
X007158Y006907D03*
X007158Y006915D03*
X007158Y006923D03*
X007158Y006931D03*
X007158Y006939D03*
X007158Y006947D03*
X007158Y006955D03*
X007158Y006962D03*
X007158Y006970D03*
X007158Y006978D03*
X007158Y006986D03*
X007158Y006994D03*
X007158Y007002D03*
X007158Y007010D03*
X007158Y007018D03*
X007158Y007025D03*
X007158Y007033D03*
X007158Y007041D03*
X007158Y007049D03*
X007158Y007057D03*
X007158Y007065D03*
X007158Y007073D03*
X007158Y007081D03*
X007158Y007088D03*
X007158Y007096D03*
X007158Y007104D03*
X007158Y007112D03*
X007158Y007120D03*
X007158Y007128D03*
X007158Y007136D03*
X007158Y007144D03*
X007158Y007151D03*
X007158Y007159D03*
X007158Y007167D03*
X007158Y007175D03*
X007158Y007183D03*
X007158Y007191D03*
X007158Y007199D03*
X007158Y007207D03*
X007158Y007214D03*
X007158Y007222D03*
X007158Y007230D03*
X007158Y007238D03*
X007158Y007246D03*
X007158Y007254D03*
X007158Y007262D03*
X007158Y007270D03*
X007158Y007277D03*
X007158Y007285D03*
X007158Y007293D03*
X007158Y007301D03*
X007158Y008592D03*
X007158Y008600D03*
X007158Y008608D03*
X007158Y008616D03*
X007158Y008624D03*
X007158Y008632D03*
X007158Y008640D03*
X007158Y008648D03*
X007158Y008655D03*
X007158Y008663D03*
X007158Y008671D03*
X007158Y008679D03*
X007158Y008687D03*
X007158Y008695D03*
X007158Y008703D03*
X007158Y008710D03*
X007158Y008718D03*
X007158Y008726D03*
X007158Y008734D03*
X007158Y008742D03*
X007158Y008750D03*
X007158Y008758D03*
X007158Y008766D03*
X007158Y008773D03*
X007158Y008781D03*
X007158Y008789D03*
X007158Y008797D03*
X007158Y008805D03*
X007158Y008813D03*
X007158Y008821D03*
X007158Y008829D03*
X007158Y008836D03*
X007158Y008844D03*
X007158Y008852D03*
X007158Y008860D03*
X007158Y008868D03*
X007158Y008876D03*
X007158Y008884D03*
X007158Y008892D03*
X007158Y008899D03*
X007158Y008907D03*
X007158Y008915D03*
X007158Y008923D03*
X007158Y008931D03*
X007158Y008939D03*
X007158Y008947D03*
X007158Y008955D03*
X007158Y008962D03*
X007158Y008970D03*
X007158Y008978D03*
X007158Y008986D03*
X007158Y008994D03*
X007158Y009002D03*
X007158Y009010D03*
X007158Y009018D03*
X007158Y009025D03*
X007158Y009033D03*
X007158Y009041D03*
X007158Y009049D03*
X007158Y009057D03*
X007158Y009065D03*
X007158Y009073D03*
X007158Y009081D03*
X007158Y009088D03*
X007158Y009096D03*
X007158Y009104D03*
X007158Y009112D03*
X007158Y009120D03*
X007158Y009128D03*
X007158Y009136D03*
X007158Y009144D03*
X007158Y009151D03*
X007158Y009159D03*
X007158Y009167D03*
X007158Y009175D03*
X007158Y009183D03*
X007158Y009191D03*
X007158Y009199D03*
X007158Y009207D03*
X007158Y009214D03*
X007158Y009222D03*
X007158Y009230D03*
X007158Y009238D03*
X007158Y009246D03*
X007158Y009254D03*
X007158Y009262D03*
X007158Y009270D03*
X007158Y009277D03*
X007158Y009285D03*
X007158Y009293D03*
X007158Y009301D03*
X007158Y009309D03*
X007158Y009317D03*
X007158Y009325D03*
X007158Y009333D03*
X007158Y009340D03*
X007158Y009348D03*
X007158Y009356D03*
X007158Y009364D03*
X007158Y009372D03*
X008693Y007899D03*
X008874Y007899D03*
X008874Y007892D03*
X008874Y007884D03*
X008874Y007876D03*
X008874Y007868D03*
X008874Y007860D03*
X008874Y007852D03*
X008874Y007844D03*
X008874Y007836D03*
X008874Y007829D03*
X008874Y007821D03*
X008874Y007813D03*
X008874Y007907D03*
X008874Y007915D03*
X008874Y007923D03*
X008874Y007931D03*
X008874Y007939D03*
X008874Y007947D03*
X008874Y007955D03*
X008874Y007962D03*
X008874Y007970D03*
X008874Y007978D03*
X008874Y007986D03*
X008874Y007994D03*
X008874Y008002D03*
X008874Y008010D03*
X008874Y008018D03*
X008874Y008025D03*
X008874Y008033D03*
X008874Y008041D03*
X008874Y008049D03*
X008874Y008057D03*
X008874Y008065D03*
X008874Y008073D03*
X008874Y008081D03*
X008874Y008088D03*
X008874Y008096D03*
X008874Y008104D03*
X008874Y008112D03*
X008874Y008120D03*
X008874Y008128D03*
X008874Y008136D03*
X008874Y008144D03*
X008874Y008151D03*
X008874Y008159D03*
X008874Y008167D03*
X008874Y008175D03*
X008874Y008183D03*
X008874Y008191D03*
X009056Y007899D03*
X008874Y007309D03*
X008874Y007301D03*
X008874Y007293D03*
X008874Y007285D03*
X008874Y007277D03*
X008874Y007270D03*
X008874Y007262D03*
X008874Y007254D03*
X008874Y007246D03*
X008874Y007238D03*
X008874Y007230D03*
X008874Y007222D03*
X008874Y007214D03*
X008874Y007207D03*
X008874Y007199D03*
X008874Y007191D03*
X008874Y007183D03*
X008874Y007175D03*
X008874Y007167D03*
X008874Y007159D03*
X008874Y007151D03*
X008874Y007144D03*
X008874Y007136D03*
X008874Y007128D03*
X008874Y007120D03*
X008874Y007112D03*
X008874Y007104D03*
X008874Y007096D03*
X008874Y007088D03*
X008874Y007081D03*
X008874Y007073D03*
X008874Y007065D03*
X008874Y007057D03*
X008874Y007049D03*
X008874Y007041D03*
X008874Y007033D03*
X008874Y007025D03*
X008874Y007018D03*
X008874Y007010D03*
X008874Y007002D03*
X008874Y006994D03*
X008874Y006986D03*
X008874Y006978D03*
X008874Y006970D03*
X008874Y006962D03*
X008874Y006955D03*
X008874Y006947D03*
X008874Y006939D03*
X008874Y006931D03*
X008874Y006923D03*
X008874Y006915D03*
X008874Y006907D03*
X008874Y006899D03*
X008874Y006892D03*
X008874Y006884D03*
X008874Y006876D03*
X008874Y006868D03*
X008874Y006860D03*
X008874Y006852D03*
X008874Y006844D03*
X008874Y006836D03*
X008874Y006829D03*
X008874Y006821D03*
X008874Y006813D03*
X008874Y006805D03*
X008874Y006797D03*
X008874Y006789D03*
X008874Y006781D03*
X008874Y006773D03*
X008874Y006766D03*
X008874Y006758D03*
X008874Y006750D03*
X008874Y006742D03*
X008874Y006734D03*
X008874Y006726D03*
X008874Y006718D03*
X008874Y006710D03*
X008874Y006703D03*
X008874Y006695D03*
X008874Y006687D03*
X008874Y006679D03*
X008874Y006671D03*
X008874Y006663D03*
X008874Y006655D03*
X008874Y006648D03*
X008874Y006640D03*
X008874Y006632D03*
X008874Y006624D03*
X008874Y006616D03*
X008874Y006608D03*
X008874Y006600D03*
X008874Y006592D03*
X008874Y006585D03*
X008874Y006577D03*
X008874Y006569D03*
X008874Y006561D03*
X008874Y006553D03*
X008874Y006545D03*
X008874Y006537D03*
X008874Y006529D03*
X008874Y006522D03*
X008874Y006514D03*
X008874Y008585D03*
X008874Y008592D03*
X008874Y008600D03*
X008874Y008608D03*
X008874Y008616D03*
X008874Y008624D03*
X008874Y008632D03*
X008874Y008640D03*
X008874Y008648D03*
X008874Y008655D03*
X008874Y008663D03*
X008874Y008671D03*
X008874Y008679D03*
X008874Y008687D03*
X008874Y008695D03*
X008874Y008703D03*
X008874Y008710D03*
X008874Y008718D03*
X008874Y008726D03*
X008874Y008734D03*
X008874Y008742D03*
X008874Y008750D03*
X008874Y008758D03*
X008874Y008766D03*
X008874Y008773D03*
X008874Y008781D03*
X008874Y008789D03*
X008874Y008797D03*
X008874Y008805D03*
X008874Y008813D03*
X008874Y008821D03*
X008874Y008829D03*
X008874Y008836D03*
X008874Y008844D03*
X008874Y008852D03*
X008874Y008860D03*
X008874Y008868D03*
X008874Y008876D03*
X008874Y008884D03*
X008874Y008892D03*
X008874Y008899D03*
X008874Y008907D03*
X008874Y008915D03*
X008874Y008923D03*
X008874Y008931D03*
X008874Y008939D03*
X008874Y008947D03*
X008874Y008955D03*
X008874Y008962D03*
X008874Y008970D03*
X008874Y008978D03*
X008874Y008986D03*
X008874Y008994D03*
X008874Y009002D03*
X008874Y009010D03*
X008874Y009018D03*
X008874Y009025D03*
X008874Y009033D03*
X008874Y009041D03*
X008874Y009049D03*
X008874Y009057D03*
X008874Y009065D03*
X008874Y009073D03*
X008874Y009081D03*
X008874Y009088D03*
X008874Y009096D03*
X008874Y009104D03*
X008874Y009112D03*
X008874Y009120D03*
X008874Y009128D03*
X008874Y009136D03*
X008874Y009144D03*
X008874Y009151D03*
X008874Y009159D03*
X008874Y009167D03*
X008874Y009175D03*
X008874Y009183D03*
X008874Y009191D03*
X008874Y009199D03*
X008874Y009207D03*
X008874Y009214D03*
X008874Y009222D03*
X008874Y009230D03*
X008874Y009238D03*
X008874Y009246D03*
X008874Y009254D03*
X008874Y009262D03*
X008874Y009270D03*
X008874Y009277D03*
X008874Y009285D03*
X008874Y009293D03*
X008874Y009301D03*
X008874Y009309D03*
X008874Y009317D03*
X008874Y009325D03*
X008874Y009333D03*
X008874Y009340D03*
X008874Y009348D03*
X008874Y009356D03*
X008874Y009364D03*
X008874Y009372D03*
D15*
X008878Y008577D03*
X008697Y007892D03*
X008878Y007687D03*
X008878Y007317D03*
X007162Y007309D03*
X007154Y008585D03*
D16*
X007146Y008577D03*
X008272Y007947D03*
X008272Y007939D03*
X008280Y007931D03*
X008280Y007955D03*
X008705Y007876D03*
X008878Y007695D03*
X009052Y007884D03*
X009477Y007939D03*
X009477Y007955D03*
X008878Y008569D03*
X008878Y007325D03*
X007170Y007317D03*
D17*
X007178Y007325D03*
X008288Y007970D03*
X008296Y007978D03*
X008304Y007986D03*
X008311Y007994D03*
X008319Y008002D03*
X008327Y008010D03*
X008335Y008018D03*
X008343Y008025D03*
X008351Y008033D03*
X008359Y008041D03*
X008367Y008049D03*
X008374Y008057D03*
X008382Y008065D03*
X008390Y008073D03*
X008398Y008081D03*
X008406Y008088D03*
X008414Y008096D03*
X008422Y008104D03*
X008430Y008112D03*
X008437Y008120D03*
X008445Y008128D03*
X008453Y008136D03*
X008461Y008144D03*
X008469Y008151D03*
X008477Y008159D03*
X008485Y008167D03*
X008493Y008175D03*
X008500Y008183D03*
X008508Y008191D03*
X008516Y008199D03*
X008524Y008207D03*
X008532Y008214D03*
X008540Y008222D03*
X008548Y008230D03*
X008556Y008238D03*
X008563Y008246D03*
X008571Y008254D03*
X008579Y008262D03*
X008587Y008270D03*
X008595Y008277D03*
X008603Y008285D03*
X008611Y008293D03*
X008619Y008301D03*
X008626Y008309D03*
X008634Y008317D03*
X008642Y008325D03*
X008650Y008333D03*
X008658Y008340D03*
X008666Y008348D03*
X008674Y008356D03*
X008681Y008364D03*
X008689Y008372D03*
X008697Y008380D03*
X008705Y008388D03*
X008713Y008396D03*
X008721Y008403D03*
X008729Y008411D03*
X008737Y008419D03*
X008744Y008427D03*
X008752Y008435D03*
X008760Y008443D03*
X008768Y008451D03*
X008776Y008459D03*
X008784Y008466D03*
X008792Y008474D03*
X008800Y008482D03*
X008807Y008490D03*
X008878Y008561D03*
X008949Y008490D03*
X008957Y008482D03*
X008965Y008474D03*
X008973Y008466D03*
X008981Y008459D03*
X008989Y008451D03*
X008996Y008443D03*
X009004Y008435D03*
X009012Y008427D03*
X009020Y008419D03*
X009028Y008411D03*
X009036Y008403D03*
X009044Y008396D03*
X009052Y008388D03*
X009059Y008380D03*
X009067Y008372D03*
X009075Y008364D03*
X009083Y008356D03*
X009091Y008348D03*
X009099Y008340D03*
X009107Y008333D03*
X009115Y008325D03*
X009122Y008317D03*
X009130Y008309D03*
X009138Y008301D03*
X009146Y008293D03*
X009154Y008285D03*
X009162Y008277D03*
X009170Y008270D03*
X009178Y008262D03*
X009185Y008254D03*
X009193Y008246D03*
X009201Y008238D03*
X009209Y008230D03*
X009217Y008222D03*
X009225Y008214D03*
X009233Y008207D03*
X009241Y008199D03*
X009248Y008191D03*
X009256Y008183D03*
X009264Y008175D03*
X009272Y008167D03*
X009280Y008159D03*
X009288Y008151D03*
X009296Y008144D03*
X009304Y008136D03*
X009311Y008128D03*
X009319Y008120D03*
X009327Y008112D03*
X009335Y008104D03*
X009343Y008096D03*
X009351Y008088D03*
X009359Y008081D03*
X009367Y008073D03*
X009374Y008065D03*
X009382Y008057D03*
X009390Y008049D03*
X009398Y008041D03*
X009406Y008033D03*
X009414Y008025D03*
X009422Y008018D03*
X009430Y008010D03*
X009437Y008002D03*
X009445Y007994D03*
X009453Y007986D03*
X009461Y007978D03*
X009469Y007923D03*
X009461Y007915D03*
X009453Y007907D03*
X009445Y007899D03*
X009437Y007892D03*
X009430Y007884D03*
X009422Y007876D03*
X009414Y007868D03*
X009406Y007860D03*
X009398Y007852D03*
X009390Y007844D03*
X009382Y007836D03*
X009374Y007829D03*
X009367Y007821D03*
X009359Y007813D03*
X009351Y007805D03*
X009343Y007797D03*
X009335Y007789D03*
X009327Y007781D03*
X009319Y007773D03*
X009311Y007766D03*
X009304Y007758D03*
X009296Y007750D03*
X009288Y007742D03*
X009280Y007734D03*
X009272Y007726D03*
X009264Y007718D03*
X009256Y007710D03*
X009248Y007703D03*
X009241Y007695D03*
X009233Y007687D03*
X009225Y007679D03*
X009217Y007671D03*
X009209Y007663D03*
X009201Y007655D03*
X009193Y007648D03*
X009185Y007640D03*
X009178Y007632D03*
X009170Y007624D03*
X009162Y007616D03*
X009154Y007608D03*
X009146Y007600D03*
X009138Y007592D03*
X009130Y007585D03*
X009122Y007577D03*
X009115Y007569D03*
X009107Y007561D03*
X009099Y007553D03*
X009091Y007545D03*
X009083Y007537D03*
X009075Y007529D03*
X009067Y007522D03*
X009059Y007514D03*
X009052Y007506D03*
X009044Y007498D03*
X009036Y007490D03*
X009028Y007482D03*
X009020Y007474D03*
X009012Y007466D03*
X009004Y007459D03*
X008996Y007451D03*
X008989Y007443D03*
X008981Y007435D03*
X008973Y007427D03*
X008965Y007419D03*
X008957Y007411D03*
X008949Y007403D03*
X008941Y007396D03*
X008878Y007333D03*
X008878Y007703D03*
X008989Y007813D03*
X008996Y007821D03*
X009004Y007829D03*
X009012Y007836D03*
X009020Y007844D03*
X009028Y007852D03*
X009036Y007860D03*
X007138Y008569D03*
D18*
X007130Y008561D03*
X007185Y007333D03*
X008878Y007340D03*
X008878Y007710D03*
X008878Y008553D03*
D19*
X008878Y008545D03*
X008878Y007718D03*
X008878Y007348D03*
X007193Y007340D03*
X007122Y008553D03*
D20*
X007115Y008545D03*
X006713Y008333D03*
X006713Y008325D03*
X007201Y007348D03*
X007603Y007561D03*
X008878Y007726D03*
X008878Y007356D03*
X008878Y008537D03*
D21*
X010087Y008372D03*
X010087Y008364D03*
X010087Y008356D03*
X010087Y008348D03*
X010087Y008340D03*
X010087Y008333D03*
X010087Y008325D03*
X010087Y008317D03*
X010087Y008309D03*
X010087Y008301D03*
X010087Y008293D03*
X010087Y008285D03*
X010087Y008277D03*
X010087Y008270D03*
X010087Y008262D03*
X010087Y008254D03*
X010087Y008246D03*
X010087Y008238D03*
X010087Y008230D03*
X010087Y008222D03*
X010087Y008214D03*
X010087Y008207D03*
X010087Y008199D03*
X010087Y008191D03*
X010087Y008183D03*
X010087Y008175D03*
X010087Y008167D03*
X010087Y008159D03*
X010087Y008151D03*
X010087Y008144D03*
X010087Y008136D03*
X010087Y008128D03*
X010087Y008120D03*
X010087Y008112D03*
X010087Y008104D03*
X010087Y008096D03*
X010087Y008088D03*
X010087Y008081D03*
X010087Y008073D03*
X010087Y008065D03*
X010087Y008057D03*
X010087Y008049D03*
X010087Y008041D03*
X010087Y008033D03*
X010087Y008025D03*
X010087Y008018D03*
X010087Y008010D03*
X010087Y008002D03*
X010087Y007994D03*
X010087Y007986D03*
X010087Y007978D03*
X010087Y007970D03*
X010087Y007962D03*
X010087Y007955D03*
X010087Y007947D03*
X010087Y007781D03*
X010087Y007773D03*
X010087Y007766D03*
X010087Y007758D03*
X010087Y007750D03*
X010087Y007742D03*
X010087Y007734D03*
X010087Y007726D03*
X010087Y007718D03*
X010087Y007710D03*
X010087Y007703D03*
X010087Y007695D03*
X010087Y007687D03*
X010087Y007679D03*
X010087Y007671D03*
X010087Y007663D03*
X010087Y007655D03*
X010087Y007648D03*
X010087Y007640D03*
X010087Y007632D03*
X010087Y007624D03*
X010087Y007616D03*
X010087Y007608D03*
X010087Y007600D03*
X010087Y007592D03*
X010087Y007585D03*
X010087Y007577D03*
X010087Y007569D03*
X010087Y007561D03*
X010087Y007553D03*
X010087Y007545D03*
X010087Y007537D03*
X010087Y007529D03*
X010087Y007522D03*
X010087Y007514D03*
X010087Y007506D03*
X010087Y007498D03*
X010087Y007490D03*
X010087Y007482D03*
X010087Y007474D03*
X010087Y007466D03*
X010087Y007459D03*
X010087Y007451D03*
X010087Y007443D03*
X010087Y007435D03*
X010087Y007427D03*
X010087Y007419D03*
X010087Y007411D03*
X010087Y007403D03*
X010087Y007396D03*
X010087Y007388D03*
X010087Y007380D03*
X010087Y007372D03*
X010087Y007364D03*
X010473Y007947D03*
X010473Y007955D03*
X010473Y007962D03*
X010473Y007970D03*
X010473Y007978D03*
X010473Y007986D03*
X010473Y007994D03*
X010473Y008002D03*
X010473Y008010D03*
X010473Y008018D03*
X010473Y008025D03*
X010473Y008033D03*
X010473Y008041D03*
X010473Y008049D03*
X010473Y008057D03*
X010473Y008065D03*
X010473Y008073D03*
X010473Y008081D03*
X010473Y008088D03*
X010473Y008096D03*
X010473Y008104D03*
X010473Y008112D03*
X010473Y008120D03*
X010473Y008128D03*
X010473Y008136D03*
X010473Y008144D03*
X010473Y008151D03*
X010473Y008159D03*
X010473Y008167D03*
X010473Y008175D03*
X010473Y008183D03*
X010473Y008191D03*
X010473Y008199D03*
X010473Y008207D03*
X010473Y008214D03*
X010473Y008222D03*
X010473Y008230D03*
X010473Y008238D03*
X010473Y008246D03*
X010473Y008254D03*
X010473Y008262D03*
X010473Y008270D03*
X010473Y008277D03*
X010473Y008285D03*
X010473Y008293D03*
X010473Y008301D03*
X010473Y008309D03*
X010473Y008317D03*
X010473Y008325D03*
X010473Y008333D03*
X010473Y008340D03*
X010473Y008348D03*
X010473Y008356D03*
X010473Y008364D03*
X010473Y008372D03*
X007591Y007553D03*
X007213Y007356D03*
X006725Y008340D03*
X007103Y008537D03*
X006071Y008529D03*
X006071Y008522D03*
X006071Y008514D03*
X006071Y008506D03*
X006071Y008498D03*
X006071Y008490D03*
X006071Y008482D03*
X006071Y008474D03*
X006071Y008466D03*
X006071Y008459D03*
X006071Y008451D03*
X006071Y008443D03*
X006071Y008435D03*
X006071Y008427D03*
X006071Y008419D03*
X006071Y008411D03*
X006071Y008403D03*
X006071Y008396D03*
X006071Y008388D03*
X006071Y008380D03*
X006071Y008372D03*
X006071Y008364D03*
X006071Y008356D03*
X006071Y008348D03*
X006071Y008340D03*
X006071Y008333D03*
X006071Y008325D03*
X006071Y008317D03*
X006071Y008309D03*
X006071Y008301D03*
X006071Y008293D03*
X006071Y008285D03*
X006071Y008277D03*
X006071Y008270D03*
X006071Y008262D03*
X006071Y008254D03*
X006071Y008246D03*
X006071Y008238D03*
X006071Y008230D03*
X006071Y008222D03*
X006071Y008214D03*
X006071Y008207D03*
X006071Y008199D03*
X006071Y008191D03*
X006071Y008183D03*
X006071Y008175D03*
X006071Y008167D03*
X006071Y008159D03*
X006071Y008151D03*
X006071Y008144D03*
X006071Y008136D03*
X006071Y008128D03*
X006071Y008120D03*
X006071Y008112D03*
X006071Y008104D03*
X006071Y008096D03*
X006071Y008088D03*
X006071Y008081D03*
X006071Y008073D03*
X006071Y008065D03*
X006071Y008057D03*
X006071Y007884D03*
X006071Y007876D03*
X006071Y007868D03*
X006071Y007860D03*
X006071Y007852D03*
X006071Y007844D03*
X006071Y007836D03*
X006071Y007829D03*
X006071Y007821D03*
X006071Y007813D03*
X006071Y007805D03*
X006071Y007797D03*
X006071Y007789D03*
X006071Y007781D03*
X006071Y007773D03*
X006071Y007766D03*
X006071Y007758D03*
X006071Y007750D03*
X006071Y007742D03*
X006071Y007734D03*
X006071Y007726D03*
X006071Y007718D03*
X006071Y007710D03*
X006071Y007703D03*
X006071Y007695D03*
X006071Y007687D03*
X006071Y007679D03*
X006071Y007671D03*
X006071Y007663D03*
X006071Y007655D03*
X006071Y007648D03*
X006071Y007640D03*
X006071Y007632D03*
X006071Y007624D03*
X006071Y007616D03*
X006071Y007608D03*
X006071Y007600D03*
X006071Y007592D03*
X006071Y007585D03*
X006071Y007577D03*
X006071Y007569D03*
X006071Y007561D03*
X006071Y007553D03*
X006071Y007545D03*
X006071Y007537D03*
X006071Y007529D03*
X006071Y007522D03*
X006071Y007514D03*
X006071Y007506D03*
X006071Y007498D03*
X006071Y007490D03*
X006071Y007482D03*
X006071Y007474D03*
X006071Y007466D03*
X006071Y007459D03*
X006071Y007451D03*
X006071Y007443D03*
X006071Y007435D03*
X006071Y007427D03*
X006071Y007419D03*
X006071Y007411D03*
X006071Y007403D03*
X006071Y007396D03*
X006071Y007388D03*
X006071Y007380D03*
X006071Y007372D03*
X006071Y007364D03*
X005662Y007364D03*
X005662Y007372D03*
X005662Y007380D03*
X005662Y007388D03*
X005662Y007396D03*
X005662Y007403D03*
X005662Y007411D03*
X005662Y007419D03*
X005662Y007427D03*
X005662Y007435D03*
X005662Y007443D03*
X005662Y007451D03*
X005662Y007459D03*
X005662Y007466D03*
X005662Y007474D03*
X005662Y007482D03*
X005662Y007490D03*
X005662Y007498D03*
X005662Y007506D03*
X005662Y007514D03*
X005662Y007522D03*
X005662Y007529D03*
X005662Y007537D03*
X005662Y007545D03*
X005662Y007553D03*
X005662Y007561D03*
X005662Y007569D03*
X005662Y007577D03*
X005662Y007585D03*
X005662Y007592D03*
X005662Y007600D03*
X005662Y007608D03*
X005662Y007616D03*
X005662Y007624D03*
X005662Y007632D03*
X005662Y007640D03*
X005662Y007648D03*
X005662Y007655D03*
X005662Y007663D03*
X005662Y007671D03*
X005662Y007679D03*
X005662Y007687D03*
X005662Y007695D03*
X005662Y007703D03*
X005662Y007710D03*
X005662Y007718D03*
X005662Y007726D03*
X005662Y007734D03*
X005662Y007742D03*
X005662Y007750D03*
X005662Y007758D03*
X005662Y007766D03*
X005662Y007773D03*
X005662Y007781D03*
X005662Y007789D03*
X005662Y007797D03*
X005662Y007805D03*
X005662Y007813D03*
X005662Y007821D03*
X005662Y007829D03*
X005662Y007836D03*
X005662Y007844D03*
X005662Y007852D03*
X005662Y007860D03*
X005662Y007868D03*
X005662Y007876D03*
X005662Y007884D03*
X005662Y008057D03*
X005662Y008065D03*
X005662Y008073D03*
X005662Y008081D03*
X005662Y008088D03*
X005662Y008096D03*
X005662Y008104D03*
X005662Y008112D03*
X005662Y008120D03*
X005662Y008128D03*
X005662Y008136D03*
X005662Y008144D03*
X005662Y008151D03*
X005662Y008159D03*
X005662Y008167D03*
X005662Y008175D03*
X005662Y008183D03*
X005662Y008191D03*
X005662Y008199D03*
X005662Y008207D03*
X005662Y008214D03*
X005662Y008222D03*
X005662Y008230D03*
X005662Y008238D03*
X005662Y008246D03*
X005662Y008254D03*
X005662Y008262D03*
X005662Y008270D03*
X005662Y008277D03*
X005662Y008285D03*
X005662Y008293D03*
X005662Y008301D03*
X005662Y008309D03*
X005662Y008317D03*
X005662Y008325D03*
X005662Y008333D03*
X005662Y008340D03*
X005662Y008348D03*
X005662Y008356D03*
X005662Y008364D03*
X005662Y008372D03*
X005662Y008380D03*
X005662Y008388D03*
X005662Y008396D03*
X005662Y008403D03*
X005662Y008411D03*
X005662Y008419D03*
X005662Y008427D03*
X005662Y008435D03*
X005662Y008443D03*
X005662Y008451D03*
X005662Y008459D03*
X005662Y008466D03*
X005662Y008474D03*
X005662Y008482D03*
X005662Y008490D03*
X005662Y008498D03*
X005662Y008506D03*
X005662Y008514D03*
X005662Y008522D03*
X005662Y008529D03*
D22*
X006737Y008348D03*
X007091Y008529D03*
X007595Y007569D03*
X007225Y007364D03*
X008878Y007364D03*
X008878Y007734D03*
X008878Y008529D03*
D23*
X007583Y007545D03*
X007567Y007537D03*
X007552Y007529D03*
X007536Y007522D03*
X007520Y007514D03*
X007504Y007506D03*
X007489Y007498D03*
X007473Y007490D03*
X007457Y007482D03*
X007441Y007474D03*
X007426Y007466D03*
X007410Y007459D03*
X007394Y007451D03*
X007378Y007443D03*
X007363Y007435D03*
X007347Y007427D03*
X007331Y007419D03*
X007315Y007411D03*
X007300Y007403D03*
X007284Y007396D03*
X007268Y007388D03*
X007252Y007380D03*
X007237Y007372D03*
X006748Y008356D03*
X006764Y008364D03*
X006780Y008372D03*
X006796Y008380D03*
X006811Y008388D03*
X006827Y008396D03*
X006843Y008403D03*
X006859Y008411D03*
X006874Y008419D03*
X006890Y008427D03*
X006906Y008435D03*
X006922Y008443D03*
X006937Y008451D03*
X006953Y008459D03*
X006969Y008466D03*
X006985Y008474D03*
X007000Y008482D03*
X007016Y008490D03*
X007032Y008498D03*
X007048Y008506D03*
X007063Y008514D03*
X007079Y008522D03*
D24*
X006729Y008317D03*
X008878Y008522D03*
X008878Y007742D03*
X008878Y007372D03*
D25*
X008878Y007380D03*
X008878Y007750D03*
X008878Y008514D03*
X007579Y007577D03*
D26*
X007571Y008065D03*
X007571Y008073D03*
X008878Y007758D03*
X008878Y007388D03*
X008878Y008506D03*
D27*
X009048Y007876D03*
X009040Y007868D03*
X008764Y007813D03*
X008756Y007821D03*
X008748Y007829D03*
X008741Y007836D03*
X008733Y007844D03*
X008725Y007852D03*
X008717Y007860D03*
X008709Y007868D03*
X008520Y007687D03*
X008512Y007695D03*
X008504Y007703D03*
X008496Y007710D03*
X008489Y007718D03*
X008481Y007726D03*
X008473Y007734D03*
X008465Y007742D03*
X008457Y007750D03*
X008449Y007758D03*
X008441Y007766D03*
X008433Y007773D03*
X008426Y007781D03*
X008418Y007789D03*
X008410Y007797D03*
X008402Y007805D03*
X008394Y007813D03*
X008386Y007821D03*
X008378Y007829D03*
X008370Y007836D03*
X008363Y007844D03*
X008355Y007852D03*
X008347Y007860D03*
X008339Y007868D03*
X008331Y007876D03*
X008323Y007884D03*
X008315Y007892D03*
X008307Y007899D03*
X008300Y007907D03*
X008292Y007915D03*
X008284Y007923D03*
X008284Y007962D03*
X008528Y007679D03*
X008536Y007671D03*
X008544Y007663D03*
X008552Y007655D03*
X008559Y007648D03*
X008567Y007640D03*
X008575Y007632D03*
X008583Y007624D03*
X008591Y007616D03*
X008599Y007608D03*
X008607Y007600D03*
X008615Y007592D03*
X008622Y007585D03*
X008630Y007577D03*
X008638Y007569D03*
X008646Y007561D03*
X008654Y007553D03*
X008662Y007545D03*
X008670Y007537D03*
X008678Y007529D03*
X008685Y007522D03*
X008693Y007514D03*
X008701Y007506D03*
X008709Y007498D03*
X008717Y007490D03*
X008725Y007482D03*
X008733Y007474D03*
X008741Y007466D03*
X008748Y007459D03*
X008756Y007451D03*
X008764Y007443D03*
X008772Y007435D03*
X008780Y007427D03*
X008788Y007419D03*
X008796Y007411D03*
X008804Y007403D03*
X008811Y007396D03*
X009473Y007931D03*
X009473Y007962D03*
X009465Y007970D03*
D28*
X008878Y007766D03*
X008878Y008498D03*
X007563Y007585D03*
X006752Y007813D03*
X006744Y007829D03*
D29*
X006768Y007805D03*
X007548Y007592D03*
X008878Y007781D03*
D30*
X007528Y007600D03*
X006780Y007844D03*
D31*
X006804Y007789D03*
X007512Y007608D03*
D32*
X007489Y007616D03*
X007457Y007624D03*
X007426Y007632D03*
X007394Y007640D03*
X007363Y007648D03*
X007331Y007655D03*
X007300Y007663D03*
X007268Y007671D03*
X007237Y007679D03*
X007205Y007687D03*
X007174Y007695D03*
X007142Y007703D03*
X007111Y007710D03*
X007079Y007718D03*
X007048Y007726D03*
X007016Y007734D03*
X006985Y007742D03*
X006953Y007750D03*
X006922Y007758D03*
X006890Y007766D03*
X006859Y007773D03*
X006827Y007781D03*
X006819Y007860D03*
X007000Y007907D03*
X007032Y007915D03*
X007063Y007923D03*
X007095Y007931D03*
X007126Y007939D03*
X007158Y007947D03*
X007189Y007955D03*
X007221Y007962D03*
X007252Y007970D03*
X007284Y007978D03*
X007315Y007986D03*
X007347Y007994D03*
X007378Y008002D03*
X007410Y008010D03*
X007441Y008018D03*
X007473Y008025D03*
X007473Y008112D03*
X007441Y008120D03*
X007410Y008128D03*
X007378Y008136D03*
X007347Y008144D03*
X007315Y008151D03*
X007284Y008159D03*
X007252Y008167D03*
X007221Y008175D03*
X007189Y008183D03*
X007158Y008191D03*
X007126Y008199D03*
X007095Y008207D03*
X007063Y008214D03*
X007032Y008222D03*
X007000Y008230D03*
X006969Y008238D03*
X006937Y008246D03*
X006906Y008254D03*
X006874Y008262D03*
X006843Y008270D03*
D33*
X008878Y007663D03*
D34*
X008878Y007671D03*
X009059Y007915D03*
X008878Y008222D03*
D35*
X008878Y008214D03*
X008878Y008207D03*
X008878Y008199D03*
X009059Y007907D03*
X008878Y007679D03*
D36*
X008878Y007773D03*
X007556Y008057D03*
X007556Y008081D03*
X006760Y008301D03*
D37*
X006776Y008293D03*
X007540Y008088D03*
X007540Y008049D03*
X008878Y007789D03*
D38*
X010248Y007789D03*
X010248Y008529D03*
D39*
X008878Y007797D03*
X006784Y007797D03*
D40*
X010256Y007797D03*
D41*
X008878Y007805D03*
X006800Y007852D03*
D42*
X010264Y007805D03*
X010264Y008514D03*
D43*
X010268Y008506D03*
X010268Y007813D03*
D44*
X006733Y007821D03*
D45*
X010272Y007821D03*
X010272Y008498D03*
D46*
X010276Y008490D03*
X010276Y008482D03*
X010276Y007836D03*
X010276Y007829D03*
D47*
X006764Y007836D03*
D48*
X010280Y007844D03*
X010280Y007852D03*
X010280Y007860D03*
X010280Y007868D03*
X010280Y007876D03*
X010280Y007884D03*
X010280Y007892D03*
X010280Y007899D03*
X010280Y007907D03*
X010280Y007915D03*
X010280Y007923D03*
X010280Y007931D03*
X010280Y007939D03*
X010280Y008380D03*
X010280Y008388D03*
X010280Y008396D03*
X010280Y008403D03*
X010280Y008411D03*
X010280Y008419D03*
X010280Y008427D03*
X010280Y008435D03*
X010280Y008443D03*
X010280Y008451D03*
X010280Y008459D03*
X010280Y008466D03*
X010280Y008474D03*
D49*
X006973Y007899D03*
X006941Y007892D03*
X006910Y007884D03*
X006878Y007876D03*
X006847Y007868D03*
D50*
X008701Y007884D03*
X009056Y007892D03*
X009481Y007947D03*
D51*
X005867Y007947D03*
X005867Y007955D03*
X005867Y007962D03*
X005867Y007970D03*
X005867Y007978D03*
X005867Y007986D03*
X005867Y007994D03*
X005867Y008002D03*
X005867Y008010D03*
X005867Y008018D03*
X005867Y008025D03*
X005867Y008033D03*
X005867Y008041D03*
X005867Y008049D03*
X005867Y007939D03*
X005867Y007931D03*
X005867Y007923D03*
X005867Y007915D03*
X005867Y007907D03*
X005867Y007899D03*
X005867Y007892D03*
D52*
X008693Y007907D03*
D53*
X008693Y007915D03*
D54*
X008693Y007923D03*
X008874Y008230D03*
X009063Y007923D03*
D55*
X007500Y008033D03*
X007500Y008104D03*
X006815Y008277D03*
D56*
X006796Y008285D03*
X007520Y008096D03*
X007520Y008041D03*
D57*
X006741Y008309D03*
D58*
X010260Y008522D03*
D59*
X009843Y009380D03*
X006189Y009380D03*
X006174Y009451D03*
D60*
X006174Y009443D03*
X006181Y009388D03*
X009851Y009388D03*
X009859Y009443D03*
D61*
X009863Y009435D03*
X009863Y009427D03*
X009855Y009396D03*
X006178Y009396D03*
X006170Y009435D03*
D62*
X006174Y009427D03*
X006174Y009419D03*
X006174Y009411D03*
X006174Y009403D03*
X009859Y009403D03*
X009859Y009411D03*
X009859Y009419D03*
D63*
X009863Y009451D03*
D64*
X009859Y009459D03*
X006174Y009459D03*
D65*
X004481Y008333D02*
X004481Y007545D01*
X002306Y007742D02*
X002308Y007760D01*
X002314Y007778D01*
X002323Y007794D01*
X002335Y007807D01*
X002350Y007818D01*
X002367Y007826D01*
X002385Y007830D01*
X002403Y007830D01*
X002421Y007826D01*
X002438Y007818D01*
X002453Y007807D01*
X002465Y007794D01*
X002474Y007778D01*
X002480Y007760D01*
X002482Y007742D01*
X002480Y007724D01*
X002474Y007706D01*
X002465Y007690D01*
X002453Y007677D01*
X002438Y007666D01*
X002421Y007658D01*
X002403Y007654D01*
X002385Y007654D01*
X002367Y007658D01*
X002350Y007666D01*
X002335Y007677D01*
X002323Y007690D01*
X002314Y007706D01*
X002308Y007724D01*
X002306Y007742D01*
X002119Y007545D02*
X002119Y008333D01*
X007630Y011088D02*
X008418Y011088D01*
X007739Y013175D02*
X007741Y013193D01*
X007747Y013211D01*
X007756Y013227D01*
X007768Y013240D01*
X007783Y013251D01*
X007800Y013259D01*
X007818Y013263D01*
X007836Y013263D01*
X007854Y013259D01*
X007871Y013251D01*
X007886Y013240D01*
X007898Y013227D01*
X007907Y013211D01*
X007913Y013193D01*
X007915Y013175D01*
X007913Y013157D01*
X007907Y013139D01*
X007898Y013123D01*
X007886Y013110D01*
X007871Y013099D01*
X007854Y013091D01*
X007836Y013087D01*
X007818Y013087D01*
X007800Y013091D01*
X007783Y013099D01*
X007768Y013110D01*
X007756Y013123D01*
X007747Y013139D01*
X007741Y013157D01*
X007739Y013175D01*
X007630Y013451D02*
X008418Y013451D01*
X011567Y008333D02*
X011567Y007545D01*
X013566Y008136D02*
X013568Y008154D01*
X013574Y008172D01*
X013583Y008188D01*
X013595Y008201D01*
X013610Y008212D01*
X013627Y008220D01*
X013645Y008224D01*
X013663Y008224D01*
X013681Y008220D01*
X013698Y008212D01*
X013713Y008201D01*
X013725Y008188D01*
X013734Y008172D01*
X013740Y008154D01*
X013742Y008136D01*
X013740Y008118D01*
X013734Y008100D01*
X013725Y008084D01*
X013713Y008071D01*
X013698Y008060D01*
X013681Y008052D01*
X013663Y008048D01*
X013645Y008048D01*
X013627Y008052D01*
X013610Y008060D01*
X013595Y008071D01*
X013583Y008084D01*
X013574Y008100D01*
X013568Y008118D01*
X013566Y008136D01*
X013930Y008333D02*
X013930Y007545D01*
M02*
