%
M48
M72
T01C0.0100
T02C0.0450
T03C0.1300
%
T01
X3693Y2033
X4481Y2033
X5268Y2033
X5268Y2821
X5268Y3608
X4481Y3608
X3693Y3608
X2906Y3608
X2906Y4396
X2906Y5183
X3693Y5183
X4481Y5183
X5268Y5183
X5268Y5970
X4481Y5970
X3693Y5970
X2906Y5970
X2119Y5970
X2119Y5183
X2119Y4396
X1331Y4396
X1331Y5183
X1331Y5970
X937Y6758
X937Y7545
X937Y8333
X937Y9120
X937Y9907
X937Y10695
X937Y11482
X937Y12270
X1725Y12270
X2512Y12270
X3300Y13057
X3300Y13844
X4087Y13844
X4874Y13844
X5662Y13844
X6449Y13844
X6843Y13451
X7237Y13451
X7630Y13451
X7237Y13844
X7237Y13057
X7630Y13057
X7630Y12466
X7237Y12466
X7237Y12073
X7630Y12073
X7630Y11482
X7237Y11482
X7237Y11088
X7630Y11088
X7630Y10695
X6843Y10695
X6843Y11088
X6843Y11482
X6843Y12073
X6449Y12073
X6449Y12466
X6843Y12466
X6843Y13057
X5662Y11876
X4874Y11876
X4874Y11088
X4087Y11088
X4087Y10301
X3300Y10301
X3496Y9514
X3103Y9514
X3103Y9120
X3496Y9120
X3496Y8726
X3103Y8726
X3103Y8333
X3496Y8333
X4087Y8333
X4481Y8333
X4481Y8726
X4481Y9120
X4087Y9120
X4087Y8726
X5268Y8333
X5268Y9120
X6056Y9120
X6843Y9120
X7630Y9120
X7630Y9907
X6843Y9907
X6056Y9907
X6056Y8333
X6843Y8333
X7630Y8333
X8418Y8333
X8418Y9120
X9205Y9120
X9205Y9907
X8418Y9907
X8418Y10695
X8418Y11088
X8811Y11088
X8811Y11482
X8418Y11482
X8418Y12073
X8811Y12073
X8811Y12466
X8418Y12466
X8418Y13057
X8811Y13057
X8811Y13451
X8418Y13451
X8811Y13844
X9205Y13451
X9599Y13844
X10386Y13844
X11174Y13844
X11961Y13844
X12748Y13844
X12748Y13057
X13536Y12270
X14323Y12270
X15111Y12270
X15111Y11482
X15111Y10695
X15111Y9907
X15111Y9120
X15111Y8333
X14323Y8333
X13930Y8333
X13536Y8333
X13536Y8726
X13930Y8726
X13930Y9120
X13536Y9120
X12945Y9120
X12552Y9120
X12552Y8726
X12945Y8726
X12945Y8333
X12552Y8333
X11961Y8333
X11567Y8333
X11567Y8726
X11567Y9120
X11961Y9120
X11961Y8726
X12552Y9514
X12945Y9514
X12748Y10301
X11961Y10301
X11961Y11088
X11174Y11088
X11174Y11876
X10386Y11876
X9599Y12073
X9205Y12073
X9205Y12466
X9599Y12466
X9205Y13057
X9205Y11482
X9205Y11088
X9205Y10695
X9993Y9907
X9993Y9120
X10780Y9120
X10780Y8333
X9993Y8333
X9993Y7545
X10780Y7545
X10780Y6758
X11567Y6758
X11567Y7151
X11961Y7151
X11961Y6758
X12552Y6758
X12945Y6758
X12945Y7151
X12552Y7151
X12552Y7545
X12945Y7545
X13536Y7545
X13930Y7545
X14323Y7545
X13930Y7151
X13930Y6758
X13536Y6758
X13536Y7151
X14323Y6758
X15111Y6758
X15111Y7545
X15111Y5970
X15111Y5183
X15111Y4396
X14323Y4396
X14323Y5183
X14323Y5970
X12748Y5970
X12748Y5183
X11961Y5183
X11961Y4396
X11174Y4396
X11174Y3608
X11961Y3608
X11174Y2821
X10386Y2821
X10386Y3608
X9599Y2821
X10386Y2033
X10386Y1640
X8418Y3608
X8418Y4396
X8418Y5183
X9205Y5183
X9205Y5970
X8418Y5970
X7630Y5970
X7630Y5183
X6843Y5183
X6843Y5970
X6056Y5970
X6056Y5183
X6056Y4396
X6843Y4396
X7630Y4396
X7630Y3608
X6843Y3608
X6843Y2821
X7630Y2821
X6056Y2821
X6056Y3608
X5268Y4396
X4481Y4396
X3693Y4396
X3693Y2821
X4481Y2821
X4481Y6758
X4481Y7151
X4087Y7151
X4087Y6758
X3496Y6758
X3103Y6758
X3103Y7151
X3496Y7151
X3496Y7545
X3103Y7545
X2512Y7545
X2119Y7545
X2119Y7151
X2512Y7151
X2512Y6758
X2119Y6758
X1725Y6758
X1725Y7545
X1725Y8333
X2119Y8333
X2512Y8333
X2512Y8726
X2119Y8726
X2119Y9120
X2512Y9120
X1725Y9120
X1725Y9907
X1725Y10695
X1725Y11482
X3300Y14632
X4087Y14632
X4874Y14632
X5662Y14632
X6449Y14632
X7237Y14632
X8811Y14632
X9599Y14632
X10386Y14632
X11174Y14632
X11961Y14632
X12748Y14632
X14323Y11482
X14323Y10695
X14323Y9907
X14323Y9120
X11961Y7545
X11567Y7545
X9993Y6758
X9993Y5970
X10780Y5970
X9993Y5183
X9205Y4396
X9205Y6758
X9205Y7545
X8418Y7545
X8418Y6758
X7630Y6758
X6843Y6758
X6843Y7545
X7630Y7545
X6056Y7545
X6056Y6758
X5268Y6758
X5268Y7545
X4481Y7545
X4087Y7545
X9205Y8333
X12748Y4396
X13536Y3608
X12748Y2821
X15111Y3608
T02
X9524Y2033
X8524Y2033
X7524Y2033
X6524Y2033
T03
X1725Y2427
X1725Y13844
X14323Y13844
X14323Y2427
M30
